<svg width="24" height="24" viewBox="0 0 24 24" fill="none" xmlns="http://www.w3.org/2000/svg">
<path d="M21 7V18C21 19.6569 19.6569 21 18 21H7M3 12.375L6.66789 8.70711C7.05842 8.31658 7.69158 8.31658 8.08211 8.70711L10.875 11.5M10.875 11.5L13.2304 9.1446C13.6209 8.75408 14.2541 8.75408 14.6446 9.14461L17 11.5M10.875 11.5L12.8438 13.4688M6 17H14C15.6569 17 17 15.6569 17 14V6C17 4.34315 15.6569 3 14 3H6C4.34315 3 3 4.34315 3 6V14C3 15.6569 4.34315 17 6 17Z" stroke="#141C24" stroke-width="1.5" stroke-linecap="round" stroke-linejoin="round"/>
</svg>
