<svg width="24" height="24" viewBox="0 0 24 24" fill="none" xmlns="http://www.w3.org/2000/svg">
<path d="M4 3.25C3.58579 3.25 3.25 3.58579 3.25 4C3.25 4.41421 3.58579 4.75 4 4.75V3.25ZM20 4.75C20.4142 4.75 20.75 4.41421 20.75 4C20.75 3.58579 20.4142 3.25 20 3.25V4.75ZM5.53903 15.8874L5.19329 16.553L5.53903 15.8874ZM5.11259 15.461L4.44703 15.8067L5.11259 15.461ZM9.88741 15.461L10.553 15.8067L9.88741 15.461ZM9.46097 15.8874L9.8067 16.553L9.46097 15.8874ZM9.46097 8.11259L9.8067 7.44703L9.46097 8.11259ZM9.88741 8.53903L10.553 8.1933L9.88741 8.53903ZM5.53903 8.11259L5.19329 7.44703L5.53903 8.11259ZM5.11259 8.53903L4.44703 8.1933L5.11259 8.53903ZM14.539 19.8874L14.1933 20.553L14.539 19.8874ZM14.1126 19.461L13.447 19.8067L14.1126 19.461ZM18.8874 19.461L19.553 19.8067L18.8874 19.461ZM18.461 19.8874L18.8067 20.553L18.461 19.8874ZM18.461 8.11259L18.8067 7.44703L18.461 8.11259ZM18.8874 8.53903L19.553 8.1933L18.8874 8.53903ZM14.539 8.11259L14.1933 7.44703L14.539 8.11259ZM14.1126 8.53903L13.447 8.1933L14.1126 8.53903ZM4 4.75H20V3.25H4V4.75ZM6.61 8.75H8.39V7.25H6.61V8.75ZM9.25 9.61V14.39H10.75V9.61H9.25ZM8.39 15.25H6.61V16.75H8.39V15.25ZM5.75 14.39V9.61H4.25V14.39H5.75ZM6.61 15.25C6.31267 15.25 6.13553 15.2494 6.0043 15.2385C5.88205 15.2283 5.86823 15.2133 5.88476 15.2219L5.19329 16.553C5.42656 16.6741 5.66348 16.7154 5.88016 16.7334C6.08786 16.7506 6.33784 16.75 6.61 16.75V15.25ZM4.25 14.39C4.25 14.6622 4.2494 14.9121 4.26665 15.1198C4.28464 15.3365 4.32585 15.5734 4.44703 15.8067L5.77815 15.1152C5.78673 15.1318 5.77165 15.1179 5.7615 14.9957C5.7506 14.8645 5.75 14.6873 5.75 14.39H4.25ZM5.88476 15.2219C5.83909 15.1981 5.80186 15.1609 5.77815 15.1152L4.44703 15.8067C4.61306 16.1263 4.87367 16.3869 5.19329 16.553L5.88476 15.2219ZM9.25 14.39C9.25 14.6873 9.2494 14.8645 9.2385 14.9957C9.22835 15.1179 9.21327 15.1318 9.22185 15.1152L10.553 15.8067C10.6741 15.5734 10.7154 15.3365 10.7334 15.1198C10.7506 14.9121 10.75 14.6622 10.75 14.39H9.25ZM8.39 16.75C8.66216 16.75 8.91214 16.7506 9.11984 16.7334C9.33652 16.7154 9.57344 16.6741 9.8067 16.553L9.11524 15.2219C9.13177 15.2133 9.11795 15.2283 8.9957 15.2385C8.86447 15.2494 8.68733 15.25 8.39 15.25V16.75ZM9.22185 15.1152C9.19814 15.1609 9.16091 15.1981 9.11524 15.2219L9.8067 16.553C10.1263 16.3869 10.3869 16.1263 10.553 15.8067L9.22185 15.1152ZM8.39 8.75C8.68733 8.75 8.86447 8.7506 8.9957 8.7615C9.11795 8.77165 9.13177 8.78673 9.11524 8.77815L9.8067 7.44703C9.57344 7.32585 9.33652 7.28464 9.11984 7.26665C8.91214 7.2494 8.66216 7.25 8.39 7.25V8.75ZM10.75 9.61C10.75 9.33784 10.7506 9.08786 10.7334 8.88016C10.7154 8.66348 10.6741 8.42656 10.553 8.1933L9.22185 8.88476C9.21327 8.86823 9.22835 8.88205 9.2385 9.0043C9.2494 9.13553 9.25 9.31267 9.25 9.61H10.75ZM9.11524 8.77815C9.1609 8.80187 9.19813 8.8391 9.22185 8.88476L10.553 8.1933C10.3869 7.87367 10.1263 7.61306 9.8067 7.44703L9.11524 8.77815ZM6.61 7.25C6.33784 7.25 6.08786 7.2494 5.88016 7.26665C5.66348 7.28464 5.42656 7.32585 5.19329 7.44703L5.88476 8.77815C5.86823 8.78673 5.88205 8.77165 6.0043 8.7615C6.13553 8.7506 6.31267 8.75 6.61 8.75V7.25ZM5.75 9.61C5.75 9.31267 5.7506 9.13553 5.7615 9.0043C5.77165 8.88205 5.78673 8.86823 5.77815 8.88476L4.44703 8.1933C4.32585 8.42656 4.28464 8.66348 4.26665 8.88016C4.2494 9.08786 4.25 9.33784 4.25 9.61H5.75ZM5.19329 7.44703C4.87367 7.61306 4.61306 7.87367 4.44703 8.1933L5.77815 8.88476C5.80187 8.8391 5.8391 8.80187 5.88476 8.77815L5.19329 7.44703ZM15.61 8.75H17.39V7.25H15.61V8.75ZM18.25 9.61V18.39H19.75V9.61H18.25ZM17.39 19.25H15.61V20.75H17.39V19.25ZM14.75 18.39V9.61H13.25V18.39H14.75ZM15.61 19.25C15.3127 19.25 15.1355 19.2494 15.0043 19.2385C14.8821 19.2283 14.8682 19.2133 14.8848 19.2219L14.1933 20.553C14.4266 20.6741 14.6635 20.7154 14.8802 20.7334C15.0879 20.7506 15.3378 20.75 15.61 20.75V19.25ZM13.25 18.39C13.25 18.6622 13.2494 18.9121 13.2666 19.1198C13.2846 19.3365 13.3259 19.5734 13.447 19.8067L14.7781 19.1152C14.7867 19.1318 14.7717 19.1179 14.7615 18.9957C14.7506 18.8645 14.75 18.6873 14.75 18.39H13.25ZM14.8848 19.2219C14.8391 19.1981 14.8019 19.1609 14.7781 19.1152L13.447 19.8067C13.6131 20.1263 13.8737 20.3869 14.1933 20.553L14.8848 19.2219ZM18.25 18.39C18.25 18.6873 18.2494 18.8645 18.2385 18.9957C18.2283 19.1179 18.2133 19.1318 18.2219 19.1152L19.553 19.8067C19.6741 19.5734 19.7154 19.3365 19.7334 19.1198C19.7506 18.9121 19.75 18.6622 19.75 18.39H18.25ZM17.39 20.75C17.6622 20.75 17.9121 20.7506 18.1198 20.7334C18.3365 20.7154 18.5734 20.6741 18.8067 20.553L18.1152 19.2219C18.1318 19.2133 18.1179 19.2283 17.9957 19.2385C17.8645 19.2494 17.6873 19.25 17.39 19.25V20.75ZM18.2219 19.1152C18.1981 19.1609 18.1609 19.1981 18.1152 19.2219L18.8067 20.553C19.1263 20.3869 19.3869 20.1263 19.553 19.8067L18.2219 19.1152ZM17.39 8.75C17.6873 8.75 17.8645 8.7506 17.9957 8.7615C18.1179 8.77165 18.1318 8.78673 18.1152 8.77815L18.8067 7.44703C18.5734 7.32585 18.3365 7.28464 18.1198 7.26665C17.9121 7.2494 17.6622 7.25 17.39 7.25V8.75ZM19.75 9.61C19.75 9.33784 19.7506 9.08786 19.7334 8.88016C19.7154 8.66348 19.6741 8.42656 19.553 8.1933L18.2219 8.88476C18.2133 8.86823 18.2283 8.88205 18.2385 9.0043C18.2494 9.13553 18.25 9.31267 18.25 9.61H19.75ZM18.1152 8.77815C18.1609 8.80186 18.1981 8.83909 18.2219 8.88476L19.553 8.1933C19.3869 7.87367 19.1263 7.61306 18.8067 7.44703L18.1152 8.77815ZM15.61 7.25C15.3378 7.25 15.0879 7.2494 14.8802 7.26665C14.6635 7.28464 14.4266 7.32585 14.1933 7.44703L14.8848 8.77815C14.8682 8.78673 14.8821 8.77165 15.0043 8.7615C15.1355 8.7506 15.3127 8.75 15.61 8.75V7.25ZM14.75 9.61C14.75 9.31267 14.7506 9.13553 14.7615 9.0043C14.7717 8.88205 14.7867 8.86823 14.7781 8.88476L13.447 8.1933C13.3259 8.42656 13.2846 8.66348 13.2666 8.88016C13.2494 9.08786 13.25 9.33784 13.25 9.61H14.75ZM14.1933 7.44703C13.8737 7.61306 13.6131 7.87367 13.447 8.1933L14.7781 8.88476C14.8019 8.83909 14.8391 8.80186 14.8848 8.77815L14.1933 7.44703Z" fill="#141C24"/>
</svg>
