<svg width="24" height="24" viewBox="0 0 24 24" fill="none" xmlns="http://www.w3.org/2000/svg">
<path d="M19 17H21V7C21 6.44772 20.5523 6 20 6H10C9.44772 6 9 6.44771 9 7V17H16M13 11H15M15 11H17M15 11V9M15 11V13M9 9H6.41421C6.149 9 5.89464 9.10536 5.70711 9.29289L3.29289 11.7071C3.10536 11.8946 3 12.149 3 12.4142V17H5M19 17.5C19 18.3284 18.3284 19 17.5 19C16.6716 19 16 18.3284 16 17.5C16 16.6716 16.6716 16 17.5 16C18.3284 16 19 16.6716 19 17.5ZM8 17.5C8 18.3284 7.32843 19 6.5 19C5.67157 19 5 18.3284 5 17.5C5 16.6716 5.67157 16 6.5 16C7.32843 16 8 16.6716 8 17.5Z" stroke="#141C24" stroke-width="1.5" stroke-linecap="round" stroke-linejoin="round"/>
</svg>
