<svg width="24" height="24" viewBox="0 0 24 24" fill="none" xmlns="http://www.w3.org/2000/svg">
<path d="M10.8854 15.8542L16.5833 10.1564C16.994 9.73203 17.2158 9.15754 17.201 8.55687C17.1862 7.9562 16.9359 7.37752 16.5041 6.94571C16.0723 6.5139 15.4936 6.26357 14.8929 6.24876C14.2922 6.23395 13.7178 6.45583 13.2934 6.86653L5.80409 14.3452C5.44275 14.6976 5.15739 15.1206 4.96456 15.5896C4.77174 16.0587 4.67527 16.5646 4.68077 17.0778C4.68626 17.5911 4.7936 18.1016 4.99656 18.5797C5.19952 19.0578 5.49407 19.494 5.86313 19.8631C6.23219 20.2321 6.66842 20.5267 7.14653 20.7296C7.62464 20.9326 8.13512 21.0399 8.64839 21.0454C9.16165 21.0509 9.66748 20.9545 10.1366 20.7616C10.6056 20.5688 11.0286 20.2835 11.381 19.9221L18.9154 12.3877C19.8963 11.377 20.427 10.0073 20.3926 8.57463C20.3582 7.14201 19.7616 5.76156 18.7317 4.73165C17.7018 3.70175 16.3213 3.10513 14.8887 3.07075C13.4561 3.03637 12.0864 3.56699 11.0756 4.54792L4.03499 11.5886" stroke="#141C24" stroke-width="1.5" stroke-miterlimit="10" stroke-linecap="round"/>
</svg>
