<svg width="24" height="24" viewBox="0 0 24 24" fill="none" xmlns="http://www.w3.org/2000/svg">
<path d="M12 4C14.7614 4 17 6.23858 17 9V12.5M12 4C11.0178 4 10.1018 4.2832 9.32908 4.7724M12 4V3M16 17H6C5.44772 17 5 16.5523 5 16C5 15.1994 5.31363 14.472 5.82474 13.934C6.40857 13.3195 7 12.604 7 11.7564V9C7 8.3944 7.10767 7.81395 7.3049 7.27674M3 3L21 21M13.7976 19.8767C13.6312 20.2179 13.3712 20.5046 13.048 20.7035C12.7247 20.9023 12.3516 21.0051 11.9721 20.9998C11.5926 20.9945 11.2224 20.8813 10.9049 20.6735C10.5873 20.4657 10.3354 20.1718 10.1786 19.8262" stroke="#141C24" stroke-width="1.5" stroke-linecap="round" stroke-linejoin="round"/>
</svg>
