<svg width="24" height="24" viewBox="0 0 24 24" fill="none" xmlns="http://www.w3.org/2000/svg">
<path d="M12 4C9.23858 4 7 6.23858 7 9V11.7564C7 12.604 6.40857 13.3195 5.82474 13.934C5.31363 14.472 5 15.1994 5 16C5 16.5523 5.44772 17 6 17H18C18.5523 17 19 16.5523 19 16C19 15.1994 18.6864 14.472 18.1753 13.934C17.5914 13.3195 17 12.604 17 11.7564V9C17 6.23858 14.7614 4 12 4ZM12 4V3M13.7976 19.8767C13.6312 20.2179 13.3712 20.5046 13.048 20.7035C12.7247 20.9023 12.3516 21.0051 11.9721 20.9998C11.5926 20.9945 11.2224 20.8813 10.9049 20.6735C10.5873 20.4657 10.3354 20.1718 10.1786 19.8262" stroke="#141C24" stroke-width="1.5" stroke-linecap="round" stroke-linejoin="round"/>
</svg>
