<svg width="24" height="24" viewBox="0 0 24 24" fill="none" xmlns="http://www.w3.org/2000/svg">
<path d="M9 12H14.25M9 12V15.5001H14.25C15.2165 15.5001 16 14.7166 16 13.75C16 12.7835 15.2165 12 14.25 12M9 12V8.5H14.25C15.2165 8.5 16 9.28352 16 10.25C16 11.2166 15.2165 12 14.25 12M11 8V7M11 17V16M14 8V7M14 17V16M21 12C21 16.9706 16.9706 21 12 21C7.02944 21 3 16.9706 3 12C3 7.02944 7.02944 3 12 3C16.9706 3 21 7.02944 21 12Z" stroke="#141C24" stroke-width="1.5" stroke-linecap="round" stroke-linejoin="round"/>
</svg>
