<svg width="24" height="24" viewBox="0 0 24 24" fill="none" xmlns="http://www.w3.org/2000/svg">
<path d="M8.00001 13.5L10.7817 10.7183M10.7817 10.7183L17.2506 5.21232C17.4158 5.07173 17.6027 4.95894 17.8041 4.87838L17.8336 4.8666C18.6499 4.54008 19.46 5.35016 19.1334 6.16647L19.1217 6.19591C19.0411 6.39731 18.9283 6.58427 18.7877 6.74945L13.2817 13.2183M10.7817 10.7183C11.615 10.7911 13.2817 11.393 13.2817 13.2183M13.2817 13.2183L10 16.5M4.70663 18.4806L4.48531 17.2882C4.16796 15.5783 5.48028 14 7.21931 14C8.75505 14 10 15.245 10 16.7807V17C10 18.6569 8.65687 20 7.00001 20H3.92628C3.63291 20 3.51006 19.6253 3.74647 19.4516L4.55842 18.8551C4.67557 18.769 4.73316 18.6235 4.70663 18.4806Z" stroke="#141C24" stroke-width="1.5" stroke-linecap="round" stroke-linejoin="round"/>
</svg>
