<svg width="24" height="24" viewBox="0 0 24 24" fill="none" xmlns="http://www.w3.org/2000/svg">
<path d="M8 5H6C4.89543 5 4 5.89543 4 7V10M8 5H16M8 5V3M8 5V7M16 5H18C19.1046 5 20 5.89543 20 7V10M16 5V3M16 5V7M20 10H4M20 10V11.75M4 10V19C4 20.1046 4.89543 21 6 21H12M15.0251 15.0251C14.3918 15.6585 14 16.5335 14 17.5C14 19.433 15.567 21 17.5 21C18.4665 21 19.3415 20.6082 19.9749 19.9749M15.0251 15.0251C15.6585 14.3918 16.5335 14 17.5 14C19.433 14 21 15.567 21 17.5C21 18.4665 20.6082 19.3415 19.9749 19.9749M15.0251 15.0251L19.9749 19.9749" stroke="#141C24" stroke-width="1.5" stroke-linecap="round"/>
</svg>
