<svg width="24" height="24" viewBox="0 0 24 24" fill="none" xmlns="http://www.w3.org/2000/svg">
<path d="M19 15V15.75H19.75V15H19ZM15 15H14.25V15.75H15V15ZM20 10V10.75C20.4142 10.75 20.75 10.4142 20.75 10H20ZM9 21.75C9.41421 21.75 9.75 21.4142 9.75 21C9.75 20.5858 9.41421 20.25 9 20.25V21.75ZM8.75 3C8.75 2.58579 8.41421 2.25 8 2.25C7.58579 2.25 7.25 2.58579 7.25 3H8.75ZM7.25 7C7.25 7.41421 7.58579 7.75 8 7.75C8.41421 7.75 8.75 7.41421 8.75 7H7.25ZM16.75 3C16.75 2.58579 16.4142 2.25 16 2.25C15.5858 2.25 15.25 2.58579 15.25 3H16.75ZM15.25 7C15.25 7.41421 15.5858 7.75 16 7.75C16.4142 7.75 16.75 7.41421 16.75 7H15.25ZM14 10.75C14.4142 10.75 14.75 10.4142 14.75 10C14.75 9.58579 14.4142 9.25 14 9.25V10.75ZM19.5 9.25C19.0858 9.25 18.75 9.58579 18.75 10C18.75 10.4142 19.0858 10.75 19.5 10.75V9.25ZM14 15.75H20V14.25H14V15.75ZM20.25 16V20H21.75V16H20.25ZM20 20.25H14V21.75H20V20.25ZM13.75 20V16H12.25V20H13.75ZM14 20.25C13.8619 20.25 13.75 20.1381 13.75 20H12.25C12.25 20.9665 13.0335 21.75 14 21.75V20.25ZM20.25 20C20.25 20.1381 20.1381 20.25 20 20.25V21.75C20.9665 21.75 21.75 20.9665 21.75 20H20.25ZM20 15.75C20.1381 15.75 20.25 15.8619 20.25 16H21.75C21.75 15.0335 20.9665 14.25 20 14.25V15.75ZM14 14.25C13.0335 14.25 12.25 15.0335 12.25 16H13.75C13.75 15.8619 13.8619 15.75 14 15.75V14.25ZM18.25 13V15H19.75V13H18.25ZM19 14.25H15V15.75H19V14.25ZM15.75 15V13H14.25V15H15.75ZM17 11.75C17.6904 11.75 18.25 12.3096 18.25 13H19.75C19.75 11.4812 18.5188 10.25 17 10.25V11.75ZM17 10.25C15.4812 10.25 14.25 11.4812 14.25 13H15.75C15.75 12.3096 16.3096 11.75 17 11.75V10.25ZM6 5.75H8V4.25H6V5.75ZM8 5.75H16V4.25H8V5.75ZM16 5.75H18V4.25H16V5.75ZM19.25 7V10H20.75V7H19.25ZM4.75 19V10H3.25V19H4.75ZM4.75 10V7H3.25V10H4.75ZM9 20.25H6V21.75H9V20.25ZM7.25 3V5H8.75V3H7.25ZM7.25 5V7H8.75V5H7.25ZM15.25 3V5H16.75V3H15.25ZM15.25 5V7H16.75V5H15.25ZM20 9.25H19.5V10.75H20V9.25ZM3.25 19C3.25 20.5188 4.48122 21.75 6 21.75V20.25C5.30964 20.25 4.75 19.6904 4.75 19H3.25ZM18 5.75C18.6904 5.75 19.25 6.30964 19.25 7H20.75C20.75 5.48122 19.5188 4.25 18 4.25V5.75ZM6 4.25C4.48122 4.25 3.25 5.48122 3.25 7H4.75C4.75 6.30964 5.30964 5.75 6 5.75V4.25ZM14 9.25H4V10.75H14V9.25Z" fill="#141C24"/>
</svg>
