<svg width="24" height="24" viewBox="0 0 24 24" fill="none" xmlns="http://www.w3.org/2000/svg">
<path d="M4.00001 4L20 20M6.9936 7.344C6.3666 8.23735 5.99858 9.3257 5.99858 10.5L5.9986 10.5142C4.04238 10.9113 2.57001 12.6408 2.57001 14.7142C2.57001 17.0811 4.48879 18.9999 6.85572 18.9999H8.9693L8.99858 19H16.9986C17.4717 19 17.9256 18.9179 18.3468 18.7671M20.5781 16.7871C20.8472 16.2493 20.9986 15.6423 20.9986 15C20.9986 12.7909 19.2077 11 16.9986 11H16.9762C16.991 10.8353 16.9986 10.6685 16.9986 10.5C16.9986 7.46243 14.5361 5 11.4986 5C10.6176 5 9.78508 5.20711 9.04693 5.57529" stroke="#141C24" stroke-width="1.5" stroke-linecap="round" stroke-linejoin="round"/>
</svg>
