<svg width="24" height="24" viewBox="0 0 24 24" fill="none" xmlns="http://www.w3.org/2000/svg">
<path d="M17 10.5C17 10.6685 16.9924 10.8353 16.9776 11H17C19.2091 11 21 12.7909 21 15C21 17.2091 19.2091 19 17 19H8.99998C8.99022 19 8.98046 19 8.97071 18.9999H6.85713C4.49019 18.9999 2.57141 17.0811 2.57141 14.7142C2.57141 12.6408 4.04379 10.9113 6 10.5142C5.99999 10.5095 5.99998 10.5047 5.99998 10.5C5.99998 7.46243 8.46242 5 11.5 5C14.5376 5 17 7.46243 17 10.5Z" stroke="#141C24" stroke-width="1.5" stroke-linecap="round" stroke-linejoin="round"/>
</svg>
