<svg width="24" height="24" viewBox="0 0 24 24" fill="none" xmlns="http://www.w3.org/2000/svg">
<path fill-rule="evenodd" clip-rule="evenodd" d="M6 4C4.34315 4 3 5.34315 3 7V14C3 15.6569 4.34315 17 6 17H6.39708C6.46167 17 6.52228 17.0312 6.55982 17.0838L8.54629 19.8648C8.75826 20.1616 9.20635 20.1389 9.38728 19.8223L10.9424 17.1008C10.978 17.0385 11.0443 17 11.1161 17H18C19.6569 17 21 15.6569 21 14V7C21 5.34315 19.6569 4 18 4H6ZM12.25 12C12.9404 12 13.5 11.4404 13.5 10.75C13.5 10.0596 12.9404 9.5 12.25 9.5C11.5596 9.5 11 10.0596 11 10.75C11 11.4404 11.5596 12 12.25 12ZM8.5 10.75C8.5 11.4404 7.94036 12 7.25 12C6.55964 12 6 11.4404 6 10.75C6 10.0596 6.55964 9.5 7.25 9.5C7.94036 9.5 8.5 10.0596 8.5 10.75ZM17 12C17.6904 12 18.25 11.4404 18.25 10.75C18.25 10.0596 17.6904 9.5 17 9.5C16.3096 9.5 15.75 10.0596 15.75 10.75C15.75 11.4404 16.3096 12 17 12Z" fill="#141C24"/>
</svg>
