<svg width="24" height="24" viewBox="0 0 24 24" fill="none" xmlns="http://www.w3.org/2000/svg">
<path d="M12 12.0001L20.3874 7.15754M12 12.0001L3.60923 7.14983M12 12.0001L12 21M3.33972 8.15475V15.8453C3.33972 16.5599 3.72092 17.2201 4.33972 17.5774L11 21.4227C11.6188 21.78 12.3812 21.78 13 21.4227L19.6602 17.5774C20.279 17.2201 20.6602 16.5599 20.6602 15.8453V8.15475C20.6602 7.44022 20.279 6.77996 19.6602 6.4227L13 2.5774C12.3812 2.22013 11.6188 2.22013 11 2.5774L4.33972 6.4227C3.72092 6.77996 3.33972 7.44022 3.33972 8.15475Z" stroke="#141C24" stroke-width="1.5" stroke-linecap="round" stroke-linejoin="round"/>
</svg>
