<svg width="24" height="24" viewBox="0 0 24 24" fill="none" xmlns="http://www.w3.org/2000/svg">
<path d="M17.6569 17.6569C16.7266 18.5871 15.5812 19.2736 14.3223 19.6555C13.0633 20.0374 11.7296 20.1029 10.4393 19.8463C9.14895 19.5896 7.94183 19.0187 6.92486 18.1841C5.90788 17.3495 5.11243 16.2769 4.60897 15.0615C4.1055 13.846 3.90957 12.5251 4.03852 11.2159C4.16748 9.90659 4.61733 8.64933 5.34825 7.55544C6.07916 6.46155 7.06857 5.5648 8.22883 4.94463C9.38909 4.32446 10.6844 4 12 4M17.6569 17.6569L14.2627 14.2627M17.6569 17.6569C18.7757 16.538 19.5376 15.1126 19.8463 13.5607C20.155 12.0089 19.9965 10.4003 19.391 8.93853C18.7855 7.47672 17.7602 6.22729 16.4446 5.34824C15.129 4.46919 13.5823 4 12 4M12 4V8.8M12 8.8C11.4738 8.8 10.9556 8.92978 10.4915 9.17785C10.0274 9.42592 9.63166 9.78462 9.3393 10.2222C9.04693 10.6597 8.86699 11.1626 8.81541 11.6863C8.76383 12.2101 8.8422 12.7384 9.04359 13.2246C9.24497 13.7108 9.56315 14.1398 9.96994 14.4736C10.3767 14.8075 10.8596 15.0358 11.3757 15.1385C11.8918 15.2412 12.4253 15.215 12.9289 15.0622C13.4325 14.9094 13.8906 14.6349 14.2627 14.2627M12 8.8C12.6329 8.8 13.2516 8.98768 13.7778 9.3393C14.3041 9.69092 14.7142 10.1907 14.9564 10.7754C15.1986 11.3601 15.262 12.0036 15.1385 12.6243C15.015 13.245 14.7103 13.8152 14.2627 14.2627" stroke="#141C24" stroke-width="1.5" stroke-linecap="round" stroke-linejoin="round"/>
</svg>
