<svg width="24" height="24" viewBox="0 0 24 24" fill="none" xmlns="http://www.w3.org/2000/svg">
<path d="M16 8.25C15.5858 8.25 15.25 8.58579 15.25 9C15.25 9.41421 15.5858 9.75 16 9.75V8.25ZM8 9.75C8.41421 9.75 8.75 9.41421 8.75 9C8.75 8.58579 8.41421 8.25 8 8.25V9.75ZM5.07805 19.7748L4.73232 20.4404L4.73232 20.4404L5.07805 19.7748ZM4.22517 18.9219L4.89073 18.5762H4.89073L4.22517 18.9219ZM19.7748 18.9219L20.4404 19.2677L19.7748 18.9219ZM18.9219 19.7748L19.2677 20.4404L18.9219 19.7748ZM19.7748 10.0781L20.4404 9.73232L20.4404 9.73232L19.7748 10.0781ZM18.9219 9.22517L18.5762 9.89073V9.89073L18.9219 9.22517ZM4.22517 10.0781L3.55961 9.73232L4.22517 10.0781ZM5.07805 9.22517L4.73232 8.55961H4.73232L5.07805 9.22517ZM12.75 4C12.75 3.58579 12.4142 3.25 12 3.25C11.5858 3.25 11.25 3.58579 11.25 4H12.75ZM12 14L11.4697 14.5303C11.7626 14.8232 12.2374 14.8232 12.5303 14.5303L12 14ZM10.0303 10.9697C9.73744 10.6768 9.26256 10.6768 8.96967 10.9697C8.67678 11.2626 8.67678 11.7374 8.96967 12.0303L10.0303 10.9697ZM15.0303 12.0303C15.3232 11.7374 15.3232 11.2626 15.0303 10.9697C14.7374 10.6768 14.2626 10.6768 13.9697 10.9697L15.0303 12.0303ZM19.25 12.22V16.78H20.75V12.22H19.25ZM16.78 19.25H7.22V20.75H16.78V19.25ZM4.75 16.78V12.22H3.25V16.78H4.75ZM16 9.75H16.78V8.25H16V9.75ZM7.22 9.75H8V8.25H7.22V9.75ZM7.22 19.25C6.63792 19.25 6.24722 19.2494 5.94653 19.2244C5.65482 19.2002 5.51562 19.157 5.42378 19.1093L4.73232 20.4404C5.07396 20.6179 5.43624 20.6872 5.82239 20.7193C6.19956 20.7506 6.6631 20.75 7.22 20.75V19.25ZM3.25 16.78C3.25 17.3369 3.2494 17.8004 3.28072 18.1776C3.31279 18.5638 3.38215 18.926 3.55961 19.2677L4.89073 18.5762C4.84302 18.4844 4.7998 18.3452 4.77557 18.0535C4.7506 17.7528 4.75 17.3621 4.75 16.78H3.25ZM5.42378 19.1093C5.19548 18.9907 5.00933 18.8045 4.89073 18.5762L3.55961 19.2677C3.82052 19.7699 4.23005 20.1795 4.73232 20.4404L5.42378 19.1093ZM19.25 16.78C19.25 17.3621 19.2494 17.7528 19.2244 18.0535C19.2002 18.3452 19.157 18.4844 19.1093 18.5762L20.4404 19.2677C20.6179 18.926 20.6872 18.5638 20.7193 18.1776C20.7506 17.8004 20.75 17.3369 20.75 16.78H19.25ZM16.78 20.75C17.3369 20.75 17.8004 20.7506 18.1776 20.7193C18.5638 20.6872 18.926 20.6179 19.2677 20.4404L18.5762 19.1093C18.4844 19.157 18.3452 19.2002 18.0535 19.2244C17.7528 19.2494 17.3621 19.25 16.78 19.25V20.75ZM19.1093 18.5762C18.9907 18.8045 18.8045 18.9907 18.5762 19.1093L19.2677 20.4404C19.7699 20.1795 20.1795 19.7699 20.4404 19.2677L19.1093 18.5762ZM20.75 12.22C20.75 11.6631 20.7506 11.1996 20.7193 10.8224C20.6872 10.4362 20.6179 10.074 20.4404 9.73232L19.1093 10.4238C19.157 10.5156 19.2002 10.6548 19.2244 10.9465C19.2494 11.2472 19.25 11.6379 19.25 12.22H20.75ZM16.78 9.75C17.3621 9.75 17.7528 9.7506 18.0535 9.77557C18.3452 9.7998 18.4844 9.84302 18.5762 9.89073L19.2677 8.55961C18.926 8.38215 18.5638 8.31279 18.1776 8.28072C17.8004 8.2494 17.3369 8.25 16.78 8.25V9.75ZM20.4404 9.73232C20.1795 9.23005 19.7699 8.82052 19.2677 8.55961L18.5762 9.89073C18.8045 10.0093 18.9907 10.1955 19.1093 10.4238L20.4404 9.73232ZM4.75 12.22C4.75 11.6379 4.7506 11.2472 4.77557 10.9465C4.7998 10.6548 4.84303 10.5156 4.89073 10.4238L3.55961 9.73232C3.38215 10.074 3.31279 10.4362 3.28072 10.8224C3.2494 11.1996 3.25 11.6631 3.25 12.22H4.75ZM7.22 8.25C6.6631 8.25 6.19956 8.2494 5.82239 8.28072C5.43624 8.31279 5.07395 8.38215 4.73232 8.55961L5.42378 9.89073C5.51562 9.84302 5.65482 9.7998 5.94653 9.77557C6.24722 9.7506 6.63792 9.75 7.22 9.75V8.25ZM4.89073 10.4238C5.00933 10.1955 5.19548 10.0093 5.42378 9.89073L4.73232 8.55961C4.23005 8.82052 3.82052 9.23005 3.55961 9.73232L4.89073 10.4238ZM11.25 4V14H12.75V4H11.25ZM12.5303 13.4697L10.0303 10.9697L8.96967 12.0303L11.4697 14.5303L12.5303 13.4697ZM12.5303 14.5303L15.0303 12.0303L13.9697 10.9697L11.4697 13.4697L12.5303 14.5303Z" fill="#141C24"/>
</svg>
