<svg width="24" height="24" viewBox="0 0 24 24" fill="none" xmlns="http://www.w3.org/2000/svg">
<path d="M13 3.0481C12.652 3.34099 12.3385 3.68664 12.0717 4.08265C10.5289 6.3729 11.1349 9.48019 13.4251 11.023C13.6059 11.1448 13.7918 11.2532 13.9816 11.3484C16 12.3612 16.7706 10.9962 17.8635 11.7323C18.5724 12.2099 18.7599 13.1716 18.2824 13.8805C17.7819 14.6234 17 15 17.1353 16.2168C17.2117 16.9036 17.6336 17.4954 18.1803 18M4 9.28003C5.08188 9.54331 6.083 10.1678 6.80601 11.1259C7.57668 12.1472 7.89615 13.3684 7.79785 14.5504C7.74578 15.1764 8.15405 15.8083 8.6794 16.1526C8.93324 16.319 9.16323 16.5312 9.35655 16.7874C10.2126 17.9218 10.0418 19.511 9 20.4407M21 12C21 16.9706 16.9706 21 12 21C7.02944 21 3 16.9706 3 12C3 7.02944 7.02944 3 12 3C16.9706 3 21 7.02944 21 12Z" stroke="#141C24" stroke-width="1.5" stroke-linecap="round" stroke-linejoin="round"/>
</svg>
