<svg width="24" height="24" viewBox="0 0 24 24" fill="none" xmlns="http://www.w3.org/2000/svg">
<path d="M9 5H7C5.89543 5 5 5.89543 5 7V19C5 20.1046 5.89543 21 7 21H9M9 5V7H15V5M9 5C9 3.89543 9.89543 3 11 3H13C14.1046 3 15 3.89543 15 5M15 5H17C18.1046 5 19 5.89543 19 7V9M12.7153 20.7716L14.902 20.3343C15.0956 20.2956 15.2734 20.2004 15.413 20.0608L21.4869 13.9869L19.5 12L13.4261 18.074C13.2865 18.2136 13.1914 18.3914 13.1526 18.585L12.7153 20.7716Z" stroke="#141C24" stroke-width="1.5" stroke-linecap="round" stroke-linejoin="round"/>
</svg>
