<svg width="24" height="24" viewBox="0 0 24 24" fill="none" xmlns="http://www.w3.org/2000/svg">
<path d="M5.09202 19.782L5.43251 19.1138L5.09202 19.782ZM4.21799 18.908L4.88624 18.5675L4.21799 18.908ZM11.782 18.908L11.1138 18.5675L11.782 18.908ZM10.908 19.782L10.5675 19.1138L10.908 19.782ZM10.908 12.218L10.5675 12.8862L10.908 12.218ZM11.782 13.092L11.1138 13.4325L11.782 13.092ZM5.09202 12.218L5.43251 12.8862L5.09202 12.218ZM4.21799 13.092L4.88624 13.4325L4.21799 13.092ZM3.58397 16.376C3.23933 16.6057 3.1462 17.0714 3.37596 17.416C3.60573 17.7607 4.07138 17.8538 4.41603 17.624L3.58397 16.376ZM6.31788 15.4547L5.90186 14.8307H5.90186L6.31788 15.4547ZM7.57969 15.5797L7.04936 16.11L7.57969 15.5797ZM10.4697 19.5303C10.7626 19.8232 11.2374 19.8232 11.5303 19.5303C11.8232 19.2374 11.8232 18.7626 11.5303 18.4697L10.4697 19.5303ZM20 4H20.75C20.75 3.58579 20.4142 3.25 20 3.25V4ZM16 3.25C15.5858 3.25 15.25 3.58579 15.25 4C15.25 4.41421 15.5858 4.75 16 4.75V3.25ZM19.25 8C19.25 8.41421 19.5858 8.75 20 8.75C20.4142 8.75 20.75 8.41421 20.75 8H19.25ZM13.4697 9.46967C13.1768 9.76256 13.1768 10.2374 13.4697 10.5303C13.7626 10.8232 14.2374 10.8232 14.5303 10.5303L13.4697 9.46967ZM12 3.25C11.5858 3.25 11.25 3.58579 11.25 4C11.25 4.41421 11.5858 4.75 12 4.75V3.25ZM12.01 4.75C12.4242 4.75 12.76 4.41421 12.76 4C12.76 3.58579 12.4242 3.25 12.01 3.25V4.75ZM8 3.25C7.58579 3.25 7.25 3.58579 7.25 4C7.25 4.41421 7.58579 4.75 8 4.75V3.25ZM8.01 4.75C8.42421 4.75 8.76 4.41421 8.76 4C8.76 3.58579 8.42421 3.25 8.01 3.25V4.75ZM4 3.25C3.58579 3.25 3.25 3.58579 3.25 4C3.25 4.41421 3.58579 4.75 4 4.75V3.25ZM4.01 4.75C4.42421 4.75 4.76 4.41421 4.76 4C4.76 3.58579 4.42421 3.25 4.01 3.25V4.75ZM4 7.25C3.58579 7.25 3.25 7.58579 3.25 8C3.25 8.41421 3.58579 8.75 4 8.75V7.25ZM4.01 8.75C4.42421 8.75 4.76 8.41421 4.76 8C4.76 7.58579 4.42421 7.25 4.01 7.25V8.75ZM16 19.25C15.5858 19.25 15.25 19.5858 15.25 20C15.25 20.4142 15.5858 20.75 16 20.75V19.25ZM16.01 20.75C16.4242 20.75 16.76 20.4142 16.76 20C16.76 19.5858 16.4242 19.25 16.01 19.25V20.75ZM20 19.25C19.5858 19.25 19.25 19.5858 19.25 20C19.25 20.4142 19.5858 20.75 20 20.75V19.25ZM20.01 20.75C20.4242 20.75 20.76 20.4142 20.76 20C20.76 19.5858 20.4242 19.25 20.01 19.25V20.75ZM20 15.25C19.5858 15.25 19.25 15.5858 19.25 16C19.25 16.4142 19.5858 16.75 20 16.75V15.25ZM20.01 16.75C20.4242 16.75 20.76 16.4142 20.76 16C20.76 15.5858 20.4242 15.25 20.01 15.25V16.75ZM20 11.25C19.5858 11.25 19.25 11.5858 19.25 12C19.25 12.4142 19.5858 12.75 20 12.75V11.25ZM20.01 12.75C20.4242 12.75 20.76 12.4142 20.76 12C20.76 11.5858 20.4242 11.25 20.01 11.25V12.75ZM7.2 12.75H8.8V11.25H7.2V12.75ZM11.25 15.2V16.8H12.75V15.2H11.25ZM8.8 19.25H7.2V20.75H8.8V19.25ZM4.75 16.8V15.2H3.25V16.8H4.75ZM7.2 19.25C6.62757 19.25 6.24336 19.2494 5.94748 19.2252C5.66035 19.2018 5.52307 19.1599 5.43251 19.1138L4.75153 20.4503C5.08879 20.6221 5.44544 20.6892 5.82533 20.7203C6.19646 20.7506 6.65232 20.75 7.2 20.75V19.25ZM3.25 16.8C3.25 17.3477 3.24942 17.8035 3.27974 18.1747C3.31078 18.5546 3.37789 18.9112 3.54973 19.2485L4.88624 18.5675C4.8401 18.4769 4.79822 18.3396 4.77476 18.0525C4.75058 17.7566 4.75 17.3724 4.75 16.8H3.25ZM5.43251 19.1138C5.19731 18.9939 5.00608 18.8027 4.88624 18.5675L3.54973 19.2485C3.81338 19.7659 4.23408 20.1866 4.75153 20.4503L5.43251 19.1138ZM11.25 16.8C11.25 17.3724 11.2494 17.7566 11.2252 18.0525C11.2018 18.3396 11.1599 18.4769 11.1138 18.5675L12.4503 19.2485C12.6221 18.9112 12.6892 18.5546 12.7203 18.1747C12.7506 17.8035 12.75 17.3477 12.75 16.8H11.25ZM8.8 20.75C9.34768 20.75 9.80354 20.7506 10.1747 20.7203C10.5546 20.6892 10.9112 20.6221 11.2485 20.4503L10.5675 19.1138C10.4769 19.1599 10.3396 19.2018 10.0525 19.2252C9.75664 19.2494 9.37243 19.25 8.8 19.25V20.75ZM11.1138 18.5675C10.9939 18.8027 10.8027 18.9939 10.5675 19.1138L11.2485 20.4503C11.7659 20.1866 12.1866 19.7659 12.4503 19.2485L11.1138 18.5675ZM8.8 12.75C9.37243 12.75 9.75664 12.7506 10.0525 12.7748C10.3396 12.7982 10.4769 12.8401 10.5675 12.8862L11.2485 11.5497C10.9112 11.3779 10.5546 11.3108 10.1747 11.2797C9.80354 11.2494 9.34768 11.25 8.8 11.25V12.75ZM12.75 15.2C12.75 14.6523 12.7506 14.1965 12.7203 13.8253C12.6892 13.4454 12.6221 13.0888 12.4503 12.7515L11.1138 13.4325C11.1599 13.5231 11.2018 13.6604 11.2252 13.9475C11.2494 14.2434 11.25 14.6276 11.25 15.2H12.75ZM10.5675 12.8862C10.8027 13.0061 10.9939 13.1973 11.1138 13.4325L12.4503 12.7515C12.1866 12.2341 11.7659 11.8134 11.2485 11.5497L10.5675 12.8862ZM7.2 11.25C6.65232 11.25 6.19646 11.2494 5.82533 11.2797C5.44545 11.3108 5.08879 11.3779 4.75153 11.5497L5.43251 12.8862C5.52307 12.8401 5.66035 12.7982 5.94748 12.7748C6.24336 12.7506 6.62757 12.75 7.2 12.75V11.25ZM4.75 15.2C4.75 14.6276 4.75058 14.2434 4.77476 13.9475C4.79822 13.6604 4.8401 13.5231 4.88624 13.4325L3.54973 12.7515C3.37789 13.0888 3.31078 13.4454 3.27974 13.8253C3.24942 14.1965 3.25 14.6523 3.25 15.2H4.75ZM4.75153 11.5497C4.23408 11.8134 3.81338 12.2341 3.54973 12.7515L4.88624 13.4325C5.00608 13.1973 5.19731 13.0061 5.43251 12.8862L4.75153 11.5497ZM4.41603 17.624L6.73391 16.0788L5.90186 14.8307L3.58397 16.376L4.41603 17.624ZM7.04936 16.11L10.4697 19.5303L11.5303 18.4697L8.11002 15.0494L7.04936 16.11ZM6.73391 16.0788C6.83306 16.0127 6.96509 16.0258 7.04936 16.11L8.11002 15.0494C7.52016 14.4595 6.59595 14.368 5.90186 14.8307L6.73391 16.0788ZM20 3.25H16V4.75H20V3.25ZM19.25 4V8H20.75V4H19.25ZM14.5303 10.5303L20.5303 4.53033L19.4697 3.46967L13.4697 9.46967L14.5303 10.5303ZM12 4.75H12.01V3.25H12V4.75ZM8 4.75H8.01V3.25H8V4.75ZM4 4.75H4.01V3.25H4V4.75ZM4 8.75H4.01V7.25H4V8.75ZM16 20.75H16.01V19.25H16V20.75ZM20 20.75H20.01V19.25H20V20.75ZM20 16.75H20.01V15.25H20V16.75ZM20 12.75H20.01V11.25H20V12.75Z" fill="#141C24"/>
</svg>
