<svg width="24" height="24" viewBox="0 0 24 24" fill="none" xmlns="http://www.w3.org/2000/svg">
<path d="M11 4H6C4.89543 4 4 4.89543 4 6V14C4 15.1046 4.89543 16 6 16H18C19.1046 16 20 15.1046 20 14V13M12 16V20M8 20H16M15.5147 6.99997C14.8284 6.31368 14.8284 5.20098 15.5147 4.51469C16.201 3.8284 17.3138 3.82845 18 4.51474C18.6863 3.8285 19.799 3.82851 20.4853 4.51479C21.1716 5.20108 21.1716 6.31378 20.4853 7.00007L18 9.48535L15.5147 6.99997Z" stroke="#141C24" stroke-width="1.5" stroke-linecap="round" stroke-linejoin="round"/>
</svg>
