<svg width="24" height="24" viewBox="0 0 24 24" fill="none" xmlns="http://www.w3.org/2000/svg">
<path d="M4 7L10.2 11.65C11.2667 12.45 12.7333 12.45 13.8 11.65L20 6.99995M12 19H5C3.89543 19 3 18.1046 3 17V7C3 5.89543 3.89543 5 5 5H19C20.1046 5 21 5.89543 21 7V11M15.5147 17C14.8284 16.3137 14.8284 15.201 15.5147 14.5147C16.201 13.8284 17.3138 13.8285 18 14.5147C18.6863 13.8285 19.799 13.8285 20.4853 14.5148C21.1716 15.2011 21.1716 16.3138 20.4853 17.0001L18 19.4853L15.5147 17Z" stroke="#141C24" stroke-width="1.5" stroke-linecap="round" stroke-linejoin="round"/>
</svg>
