<svg width="24" height="24" viewBox="0 0 24 24" fill="none" xmlns="http://www.w3.org/2000/svg">
<path d="M11 19H5C3.89543 19 3 18.1046 3 17V7C3 5.89543 3.89543 5 5 5H9.58579C9.851 5 10.1054 5.10536 10.2929 5.29289L12 7H19C20.1046 7 21 7.89543 21 9V10M14.4142 16.6569C13.6332 15.8758 13.6332 14.6095 14.4142 13.8285C15.1953 13.0474 16.4616 13.0474 17.2426 13.8285C18.0237 13.0474 19.29 13.0474 20.0711 13.8285C20.8521 14.6095 20.8521 15.8758 20.0711 16.6569L17.2426 19.4853L14.4142 16.6569Z" stroke="#141C24" stroke-width="1.5" stroke-linecap="round" stroke-linejoin="round"/>
</svg>
