<svg width="24" height="24" viewBox="0 0 24 24" fill="none" xmlns="http://www.w3.org/2000/svg">
<path d="M13.5 3L19 8.625M13.5 3V7.625C13.5 8.17728 13.9477 8.625 14.5 8.625H19M13.5 3H8C6.34315 3 5 4.34315 5 6V18C5 19.6569 6.34315 21 8 21H11M19 8.625V11.8125M13.4142 17.6569C12.6332 16.8758 12.6332 15.6095 13.4142 14.8284C14.1953 14.0474 15.4616 14.0474 16.2426 14.8284C17.0237 14.0474 18.29 14.0474 19.0711 14.8284C19.8521 15.6095 19.8521 16.8758 19.0711 17.6569L16.2426 20.4853L13.4142 17.6569Z" stroke="#141C24" stroke-width="1.5" stroke-linecap="round" stroke-linejoin="round"/>
</svg>
