<svg width="24" height="24" viewBox="0 0 24 24" fill="none" xmlns="http://www.w3.org/2000/svg">
<path d="M3 12.25C2.58579 12.25 2.25 12.5858 2.25 13C2.25 13.4142 2.58579 13.75 3 13.75V12.25ZM21 13.75C21.4142 13.75 21.75 13.4142 21.75 13C21.75 12.5858 21.4142 12.25 21 12.25V13.75ZM5.75 13C5.75 12.5858 5.41421 12.25 5 12.25C4.58579 12.25 4.25 12.5858 4.25 13H5.75ZM4.25 10.25C4.25 10.6642 4.58579 11 5 11C5.41421 11 5.75 10.6642 5.75 10.25H4.25ZM19.75 13C19.75 12.5858 19.4142 12.25 19 12.25C18.5858 12.25 18.25 12.5858 18.25 13H19.75ZM18.25 10.25C18.25 10.6642 18.5858 11 19 11C19.4142 11 19.75 10.6642 19.75 10.25H18.25ZM6.09202 18.782L6.43251 18.1138L6.09202 18.782ZM5.21799 17.908L5.88624 17.5675L5.88624 17.5675L5.21799 17.908ZM17.908 18.782L17.5675 18.1138H17.5675L17.908 18.782ZM18.782 17.908L18.1138 17.5675V17.5675L18.782 17.908ZM17.908 5.21799L17.5675 5.88624L17.5675 5.88624L17.908 5.21799ZM18.782 6.09202L18.1138 6.43251V6.43251L18.782 6.09202ZM6.09202 5.21799L5.75153 4.54973V4.54973L6.09202 5.21799ZM5.21799 6.09202L4.54973 5.75153V5.75153L5.21799 6.09202ZM3 13.75H21V12.25H3V13.75ZM8.2 5.75H15.8V4.25H8.2V5.75ZM15.8 18.25H8.2V19.75H15.8V18.25ZM5.75 15.8V13H4.25V15.8H5.75ZM18.25 13V15.8H19.75V13H18.25ZM8.2 18.25C7.62757 18.25 7.24336 18.2494 6.94748 18.2252C6.66036 18.2018 6.52307 18.1599 6.43251 18.1138L5.75153 19.4503C6.08879 19.6221 6.44545 19.6892 6.82533 19.7203C7.19646 19.7506 7.65232 19.75 8.2 19.75V18.25ZM4.25 15.8C4.25 16.3477 4.24942 16.8035 4.27974 17.1747C4.31078 17.5546 4.37789 17.9112 4.54973 18.2485L5.88624 17.5675C5.8401 17.4769 5.79822 17.3396 5.77476 17.0525C5.75058 16.7566 5.75 16.3724 5.75 15.8H4.25ZM6.43251 18.1138C6.19731 17.9939 6.00608 17.8027 5.88624 17.5675L4.54973 18.2485C4.81338 18.7659 5.23408 19.1866 5.75153 19.4503L6.43251 18.1138ZM15.8 19.75C16.3477 19.75 16.8035 19.7506 17.1747 19.7203C17.5546 19.6892 17.9112 19.6221 18.2485 19.4503L17.5675 18.1138C17.4769 18.1599 17.3396 18.2018 17.0525 18.2252C16.7566 18.2494 16.3724 18.25 15.8 18.25V19.75ZM18.25 15.8C18.25 16.3724 18.2494 16.7566 18.2252 17.0525C18.2018 17.3396 18.1599 17.4769 18.1138 17.5675L19.4503 18.2485C19.6221 17.9112 19.6892 17.5546 19.7203 17.1747C19.7506 16.8035 19.75 16.3477 19.75 15.8H18.25ZM18.2485 19.4503C18.7659 19.1866 19.1866 18.7659 19.4503 18.2485L18.1138 17.5675C17.9939 17.8027 17.8027 17.9939 17.5675 18.1138L18.2485 19.4503ZM15.8 5.75C16.3724 5.75 16.7566 5.75058 17.0525 5.77476C17.3396 5.79822 17.4769 5.8401 17.5675 5.88624L18.2485 4.54973C17.9112 4.37789 17.5546 4.31078 17.1747 4.27974C16.8035 4.24942 16.3477 4.25 15.8 4.25V5.75ZM19.75 8.2C19.75 7.65232 19.7506 7.19646 19.7203 6.82533C19.6892 6.44545 19.6221 6.08879 19.4503 5.75153L18.1138 6.43251C18.1599 6.52307 18.2018 6.66035 18.2252 6.94748C18.2494 7.24336 18.25 7.62757 18.25 8.2H19.75ZM17.5675 5.88624C17.8027 6.00608 17.9939 6.19731 18.1138 6.43251L19.4503 5.75153C19.1866 5.23408 18.7659 4.81338 18.2485 4.54973L17.5675 5.88624ZM8.2 4.25C7.65232 4.25 7.19646 4.24942 6.82533 4.27974C6.44545 4.31078 6.08879 4.37789 5.75153 4.54973L6.43251 5.88624C6.52307 5.8401 6.66036 5.79822 6.94748 5.77476C7.24336 5.75058 7.62757 5.75 8.2 5.75V4.25ZM5.75 8.2C5.75 7.62757 5.75058 7.24336 5.77476 6.94748C5.79822 6.66035 5.8401 6.52307 5.88624 6.43251L4.54973 5.75153C4.37789 6.08879 4.31078 6.44545 4.27974 6.82533C4.24942 7.19646 4.25 7.65232 4.25 8.2H5.75ZM5.75153 4.54973C5.23408 4.81338 4.81338 5.23408 4.54973 5.75153L5.88624 6.43251C6.00608 6.19731 6.19731 6.00608 6.43251 5.88624L5.75153 4.54973ZM5.75 10.25V8.2H4.25V10.25H5.75ZM18.25 8.2V10.25H19.75V8.2H18.25Z" fill="#141C24"/>
</svg>
