<svg width="24" height="24" viewBox="0 0 24 24" fill="none" xmlns="http://www.w3.org/2000/svg">
<path d="M4 12H20M4 12C2.89543 12 2 11.1046 2 10V9C2 7.89543 2.89543 7 4 7H20C21.1046 7 22 7.89543 22 9V10C22 11.1046 21.1046 12 20 12M4 12L4 19C4 20.1046 4.89543 21 6 21H18C19.1046 21 20 20.1046 20 19V12M12 7V21M12 6.87097C12 6.94223 11.9422 7 11.871 7H6.76C5.78798 7 5 6.2064 5 5.23438C5 4.00429 5.99718 3 7.22727 3H8.12903C10.2669 3 12 4.73309 12 6.87097ZM12 6.87097C12 6.94223 12.0578 7 12.129 7H17.24C18.212 7 19 6.2064 19 5.23438C19 4.00429 18.0028 3 16.7727 3H15.871C13.7331 3 12 4.73309 12 6.87097Z" stroke="#141C24" stroke-width="1.5" stroke-linecap="round" stroke-linejoin="round"/>
</svg>
