<svg width="24" height="24" viewBox="0 0 24 24" fill="none" xmlns="http://www.w3.org/2000/svg">
<path d="M17.3209 15.2453C16.5664 15.8784 15.6946 16.3567 14.7553 16.6529C13.816 16.949 12.8275 17.0573 11.8463 16.9714C10.8652 16.8856 9.91052 16.6073 9.03689 16.1526C8.16326 15.6978 7.38776 15.0754 6.75467 14.3209C6.12158 13.5664 5.64329 12.6946 5.34712 11.7553C5.05095 10.8159 4.9427 9.82747 5.02854 8.8463C5.11438 7.86514 5.39264 6.91049 5.84742 6.03686C6.3022 5.16323 6.92461 4.38773 7.67909 3.75464M12 17V20M12 20H9.5M12 20H14M17 9.49997C17 11.9853 14.9853 14 12.5 14C10.0147 14 8 11.9853 8 9.49997C8 7.01469 10.0147 4.99997 12.5 4.99997C14.9853 4.99997 17 7.01469 17 9.49997Z" stroke="#141C24" stroke-width="1.5" stroke-linecap="round" stroke-linejoin="round"/>
</svg>
