<svg width="24" height="24" viewBox="0 0 24 24" fill="none" xmlns="http://www.w3.org/2000/svg">
<path d="M20 9.33333V6C20 4.89543 19.1046 4 18 4H14.6667M20 9.33333V14.6667M20 9.33333H14.6667M4 9.33333V4M4 9.33333V14.6667M4 9.33333H8C8.73638 9.33333 9.33333 9.93029 9.33333 10.6667V14.6667M20 14.6667V18C20 19.1046 19.1046 20 18 20H14.6667M20 14.6667H18.5M4 14.6667V18C4 19.1046 4.89543 20 6 20H9.33333M4 14.6667H9.33333M9.33333 20H14.6667M9.33333 20V14.6667M9.33333 4H14.6667M9.33333 4H8M9.33333 4V5.5M14.6667 4V9.33333M14.6667 20V16C14.6667 15.2636 14.0697 14.6667 13.3333 14.6667H9.33333M14.6667 9.33333H13.5M14.6667 9.33333V10.5972M3 3L21 21" stroke="#141C24" stroke-width="1.5" stroke-linecap="round" stroke-linejoin="round"/>
</svg>
