<svg width="24" height="24" viewBox="0 0 24 24" fill="none" xmlns="http://www.w3.org/2000/svg">
<path d="M5 5L21 21M18 13V11C18 7.68629 15.3137 5 12 5H10M6 13V9.41421C6 8.50871 6.35971 7.64029 7 7M6 13H6.75C7.44036 13 8 13.5596 8 14.25V17.75C8 18.4404 7.44036 19 6.75 19H6C4.34315 19 3 17.6569 3 16C3 14.3431 4.34315 13 6 13ZM16 16.5V17C16 18.1046 16.8954 19 18 19H19M16.5 13H17C19.2091 13 21 14.7909 21 17V17.5" stroke="#141C24" stroke-width="1.5" stroke-linecap="round" stroke-linejoin="round"/>
</svg>
