<svg width="24" height="24" viewBox="0 0 24 24" fill="none" xmlns="http://www.w3.org/2000/svg">
<path d="M4 4L20 20M19 11V9.5C19 5.91015 16.0899 3 12.5 3H9M19 11V14.75M19 11H15.75C15.3358 11 15 11.3358 15 11.75M5 11H7C8.10457 11 9 11.8954 9 13V15C9 16.1046 8.10457 17 7 17H5V11ZM5 11V7.125C5 6.71931 5.13158 6.32456 5.375 6L5.5625 5.75M13 20H16.5585C17.4193 20 18.1836 19.4491 18.4558 18.6325L18.5 18.5M17 17H16C15.4477 17 15 16.5523 15 16V15.5" stroke="#141C24" stroke-width="1.5" stroke-linecap="round" stroke-linejoin="round"/>
</svg>
