<svg width="24" height="24" viewBox="0 0 24 24" fill="none" xmlns="http://www.w3.org/2000/svg">
<path d="M5.52783 16.7023C6.66016 18.2608 8.31686 19.3584 10.1936 19.7934C12.0702 20.2284 14.0409 19.9716 15.7434 19.0701C17.4459 18.1687 18.766 16.6832 19.4611 14.8865C20.1562 13.0898 20.1796 11.1027 19.527 9.29011C18.8744 7.47756 17.5897 5.96135 15.9089 5.02005C14.2281 4.07875 12.2641 3.77558 10.3777 4.16623C8.49125 4.55689 6.80915 5.61514 5.64041 7.14656C4.47167 8.67797 3.89479 10.5797 4.01575 12.5023M4.01575 12.5023L2.51575 11.0023M4.01575 12.5023L5.51575 11.0023M12 8V12L15 15" stroke="#141C24" stroke-width="1.5" stroke-linecap="round" stroke-linejoin="round"/>
</svg>
