<svg width="24" height="24" viewBox="0 0 24 24" fill="none" xmlns="http://www.w3.org/2000/svg">
<path d="M12.8431 18.1568C14.5558 19.0188 16.5723 19.6404 18.9375 19.9063C19.5115 19.9709 20 19.511 20 18.9334V16.7808C20 16.3219 19.6877 15.9219 19.2425 15.8106L16.5493 15.1373C16.2085 15.0521 15.848 15.152 15.5996 15.4004L12.8431 18.1568ZM12.8431 18.1568C9.72746 16.5888 7.61702 14.225 6.24113 11.7588M6.24113 11.7588C4.93029 9.40926 4.28619 6.96674 4.07477 5.03084C4.0134 4.46884 4.46851 4 5.03385 4H7.18016C7.65684 4 8.06726 4.33646 8.16074 4.80388L8.89501 8.47521C8.96058 8.80307 8.85796 9.14201 8.62153 9.37843L6.24113 11.7588ZM14 10H18M14 10V6M14 10L20 4" stroke="#141C24" stroke-width="1.5" stroke-linecap="round" stroke-linejoin="round"/>
</svg>
