<svg width="24" height="24" viewBox="0 0 24 24" fill="none" xmlns="http://www.w3.org/2000/svg">
<path d="M4 15L20 15M4 9L20 9M21 12C21 16.9706 16.9706 21 12 21C7.02944 21 3 16.9706 3 12C3 7.02944 7.02944 3 12 3C16.9706 3 21 7.02944 21 12ZM15.6 12.0001C15.6 15.4332 14.2269 18.5457 12 20.8182C9.77306 18.5457 8.39999 15.4332 8.39999 12.0001C8.39999 8.56691 9.77306 5.45445 12 3.18188C14.2269 5.45445 15.6 8.56691 15.6 12.0001Z" stroke="#141C24" stroke-width="1.5" stroke-linecap="round" stroke-linejoin="round"/>
</svg>
