<svg width="24" height="24" viewBox="0 0 24 24" fill="none" xmlns="http://www.w3.org/2000/svg">
<path fill-rule="evenodd" clip-rule="evenodd" d="M4.53033 3.46967C4.23744 3.17678 3.76256 3.17678 3.46967 3.46967C3.17678 3.76256 3.17678 4.23744 3.46967 4.53033L6.49532 7.55598L5.60248 8.114L3.60248 9.364C3.38319 9.50106 3.24998 9.74141 3.24998 10C3.24998 10.2586 3.38319 10.4989 3.60248 10.636L11.6025 15.636C11.8457 15.788 12.1543 15.788 12.3975 15.636L13.7377 14.7984L15.1107 16.1714L12 18.1156L4.39748 13.364C4.04623 13.1445 3.58351 13.2512 3.36398 13.6025C3.14445 13.9538 3.25123 14.4165 3.60248 14.636L11.6025 19.636C11.8457 19.788 12.1543 19.788 12.3975 19.636L16.1992 17.2599L19.4697 20.5303C19.7626 20.8232 20.2374 20.8232 20.5303 20.5303C20.8232 20.2374 20.8232 19.7626 20.5303 19.4697L4.53033 3.46967ZM12.6492 13.7098L7.58385 8.64451L7.39748 8.761L6.39748 9.386L5.41508 10L12 14.1156L12.6492 13.7098ZM11.6025 4.364C11.8457 4.212 12.1543 4.212 12.3975 4.364L20.3975 9.364C20.6168 9.50106 20.75 9.74141 20.75 10C20.75 10.2586 20.6168 10.4989 20.3975 10.636L18.3975 11.886L17.3975 12.511L16.8975 12.8235L16.6475 12.9797C16.2962 13.1993 15.8335 13.0925 15.614 12.7412C15.3944 12.39 15.5012 11.9273 15.8525 11.7078L16.1025 11.5515L16.6025 11.239L17.6025 10.614L18.5849 10L12 5.88444L11.3975 6.261L10.8975 6.5735L10.6475 6.72975C10.2962 6.94928 9.83351 6.8425 9.61398 6.49125C9.39445 6.14 9.50123 5.67728 9.85248 5.45775L10.1025 5.3015L10.6025 4.989L11.6025 4.364ZM20.636 13.6025C20.8555 13.9538 20.7487 14.4165 20.3975 14.636L19.3975 15.261L19.1475 15.4172C18.7962 15.6368 18.3335 15.53 18.114 15.1787C17.8944 14.8275 18.0012 14.3648 18.3525 14.1453L18.6025 13.989L19.6025 13.364C19.9537 13.1445 20.4164 13.2512 20.636 13.6025Z" fill="#141C24"/>
</svg>
