<svg width="24" height="24" viewBox="0 0 24 24" fill="none" xmlns="http://www.w3.org/2000/svg">
<path d="M11 5H7C5.89543 5 5 5.89543 5 7V16H19V13.5M15.8571 10H20.1429C20.6162 10 21 9.61624 21 9.14286V6.42857C21 5.95518 20.6162 5.57143 20.1429 5.57143H15.8571C15.3838 5.57143 15 5.95518 15 6.42857V9.14286C15 9.61624 15.3838 10 15.8571 10ZM19.2857 5.57143V4.28571C19.2857 3.57563 18.7101 3 18 3C17.2899 3 16.7143 3.57563 16.7143 4.28571V5.57143H19.2857ZM3 16H21V17C21 18.1046 20.1046 19 19 19H5C3.89543 19 3 18.1046 3 17V16Z" stroke="#141C24" stroke-width="1.5" stroke-linecap="round" stroke-linejoin="round"/>
</svg>
