<svg width="24" height="24" viewBox="0 0 24 24" fill="none" xmlns="http://www.w3.org/2000/svg">
<path d="M13.5 3L19 8.625M13.5 3V7.625C13.5 8.17728 13.9477 8.625 14.5 8.625H19M13.5 3H8C6.34315 3 5 4.34315 5 6V18C5 19.6569 6.34315 21 8 21H10M19 8.625V11.8125M14 21H19C19.5523 21 20 20.5523 20 20V18C20 17.4477 19.5523 17 19 17H14C13.4477 17 13 17.4477 13 18V20C13 20.5523 13.4477 21 14 21ZM18 17V15.5C18 14.6716 17.3284 14 16.5 14C15.6716 14 15 14.6716 15 15.5V17H18Z" stroke="#141C24" stroke-width="1.5" stroke-linecap="round" stroke-linejoin="round"/>
</svg>
