<svg width="24" height="24" viewBox="0 0 24 24" fill="none" xmlns="http://www.w3.org/2000/svg">
<path d="M3 10V18C3 19.1046 3.89543 20 5 20H10M3 10V6C3 4.89543 3.89543 4 5 4H19C20.1046 4 21 4.89543 21 6V10M3 10H21M21 10V12M6 7H6.01M9 7H9.01M14.8571 21H19.1429C19.6162 21 20 20.6162 20 20.1429V17.4286C20 16.9552 19.6162 16.5714 19.1429 16.5714H14.8571C14.3838 16.5714 14 16.9552 14 17.4286V20.1429C14 20.6162 14.3838 21 14.8571 21ZM18.2857 16.5714V15.2857C18.2857 14.5756 17.7101 14 17 14C16.2899 14 15.7143 14.5756 15.7143 15.2857V16.5714H18.2857Z" stroke="#141C24" stroke-width="1.5" stroke-linecap="round" stroke-linejoin="round"/>
</svg>
