<svg width="24" height="24" viewBox="0 0 24 24" fill="none" xmlns="http://www.w3.org/2000/svg">
<path d="M21 10.5V8C21 6.89543 20.1046 6 19 6H5C3.89543 6 3 6.89543 3 8V17C3 18.1046 3.89543 19 5 19H12M3 10H20.5M7 15H9M15.8571 20H20.1429C20.6162 20 21 19.6162 21 19.1429V16.4286C21 15.9552 20.6162 15.5714 20.1429 15.5714H15.8571C15.3838 15.5714 15 15.9552 15 16.4286V19.1429C15 19.6162 15.3838 20 15.8571 20ZM19.2857 15.5714V14.2857C19.2857 13.5756 18.7101 13 18 13C17.2899 13 16.7143 13.5756 16.7143 14.2857V15.5714H19.2857Z" stroke="#141C24" stroke-width="1.5" stroke-linecap="round" stroke-linejoin="round"/>
</svg>
