<svg width="24" height="24" viewBox="0 0 24 24" fill="none" xmlns="http://www.w3.org/2000/svg">
<path d="M4 7L10.2 11.65C11.2667 12.45 12.7333 12.45 13.8 11.65L20 6.99995M12 19H5C3.89543 19 3 18.1046 3 17V7C3 5.89543 3.89543 5 5 5H19C20.1046 5 21 5.89543 21 7V12M15.8571 20H20.1429C20.6162 20 21 19.6162 21 19.1429V17.4286C21 16.9552 20.6162 16.5714 20.1429 16.5714H15.8571C15.3838 16.5714 15 16.9552 15 17.4286V19.1429C15 19.6162 15.3838 20 15.8571 20ZM19.2857 16.5714V15.2857C19.2857 14.5756 18.7101 14 18 14C17.2899 14 16.7143 14.5756 16.7143 15.2857V16.5714H19.2857Z" stroke="#141C24" stroke-width="1.5" stroke-linecap="round" stroke-linejoin="round"/>
</svg>
