<svg width="24" height="24" viewBox="0 0 24 24" fill="none" xmlns="http://www.w3.org/2000/svg">
<path d="M10 4H6C4.89543 4 4 4.89543 4 6V14C4 15.1046 4.89543 16 6 16H18C19.1046 16 20 15.1046 20 14V13M12 16V20M8 20H16M14.8571 10H19.1429C19.6162 10 20 9.61624 20 9.14286V6.42857C20 5.95518 19.6162 5.57143 19.1429 5.57143H14.8571C14.3838 5.57143 14 5.95518 14 6.42857V9.14286C14 9.61624 14.3838 10 14.8571 10ZM18.2857 5.57143V4.28571C18.2857 3.57563 17.7101 3 17 3C16.2899 3 15.7143 3.57563 15.7143 4.28571V5.57143H18.2857Z" stroke="#141C24" stroke-width="1.5" stroke-linecap="round" stroke-linejoin="round"/>
</svg>
