<svg width="24" height="24" viewBox="0 0 24 24" fill="none" xmlns="http://www.w3.org/2000/svg">
<path d="M11 19H5C3.89543 19 3 18.1046 3 17V7C3 5.89543 3.89543 5 5 5H9.58579C9.851 5 10.1054 5.10536 10.2929 5.29289L12 7H19C20.1046 7 21 7.89543 21 9V10M15 20H20C20.5523 20 21 19.5523 21 19V16C21 15.4477 20.5523 15 20 15H15C14.4477 15 14 15.4477 14 16V19C14 19.5523 14.4477 20 15 20ZM19 15V13.5C19 12.6716 18.3284 12 17.5 12C16.6716 12 16 12.6716 16 13.5V15H19Z" stroke="#141C24" stroke-width="1.5" stroke-linecap="round" stroke-linejoin="round"/>
</svg>
