<svg width="24" height="24" viewBox="0 0 24 24" fill="none" xmlns="http://www.w3.org/2000/svg">
<path d="M15 4.99997V20.5M9 3.99997L9 18M3 5.72073V19.3819C3 20.1253 3.78231 20.6088 4.44721 20.2764L8.10557 18.4472C8.66863 18.1657 9.33137 18.1657 9.89443 18.4472L14.1056 20.5528C14.6686 20.8343 15.3314 20.8343 15.8944 20.5528L20.4472 18.2764C20.786 18.107 21 17.7607 21 17.3819V4.3874C21 3.70484 20.3313 3.22287 19.6838 3.43871L15.6325 4.78915C15.2219 4.926 14.7781 4.926 14.3675 4.78915L9.63246 3.21079C9.22192 3.07394 8.77808 3.07394 8.36754 3.21079L3.68377 4.77205C3.27543 4.90816 3 5.2903 3 5.72073Z" stroke="#141C24" stroke-width="1.5" stroke-linecap="round" stroke-linejoin="round"/>
</svg>
