<svg width="24" height="24" viewBox="0 0 24 24" fill="none" xmlns="http://www.w3.org/2000/svg">
<path d="M6 15L4.15806 13.7721C3.43457 13.2897 3 12.4777 3 11.6082V11.1623C3 9.60658 4.52412 8.50806 6 9.00002M18 15L19.8419 13.7721C20.5654 13.2897 21 12.4777 21 11.6082V11.1623C21 9.60658 19.4759 8.50806 18 9.00002M9 12L11.3675 11.2108C11.7781 11.074 12.2219 11.074 12.6325 11.2108L15 12M10 15L11.5149 14.6213C11.8334 14.5417 12.1666 14.5417 12.4851 14.6213L14 15M6 10.2361V14.6115C6 16.5669 7.41365 18.2356 9.3424 18.5571L11.3424 18.8904C11.7778 18.963 12.2222 18.963 12.6576 18.8904L14.6576 18.5571C16.5863 18.2356 18 16.5669 18 14.6115V10.2361C18 9.47854 17.572 8.78601 16.8944 8.44723L12.8944 6.44723C12.3314 6.1657 11.6686 6.1657 11.1056 6.44723L7.10557 8.44723C6.428 8.78601 6 9.47854 6 10.2361Z" stroke="#141C24" stroke-width="1.5" stroke-linecap="round" stroke-linejoin="round"/>
</svg>
