<svg width="24" height="24" viewBox="0 0 24 24" fill="none" xmlns="http://www.w3.org/2000/svg">
<path d="M16 20H6C4.89543 20 4 19.1046 4 18V10.372C4 10.1321 4.08631 9.90006 4.24318 9.71843L6.59091 7H13.4091L15.7568 9.71843C15.9137 9.90006 16 10.1321 16 10.372V14M8 13H10M10 13H12M10 13V11M10 13V15M18.5 14.4019L15.5 19.5981M5 7H15C15.5523 7 16 6.55228 16 6V5C16 4.44772 15.5523 4 15 4H5C4.44772 4 4 4.44772 4 5V6C4 6.55228 4.44772 7 5 7ZM20 17C20 18.6569 18.6569 20 17 20C15.3431 20 14 18.6569 14 17C14 15.3431 15.3431 14 17 14C18.6569 14 20 15.3431 20 17Z" stroke="#141C24" stroke-width="1.5" stroke-linecap="round" stroke-linejoin="round"/>
</svg>
