<svg width="24" height="24" viewBox="0 0 24 24" fill="none" xmlns="http://www.w3.org/2000/svg">
<path d="M12 17V21M12 17C12.0349 17 12.0698 16.9997 12.1047 16.9991C13.3716 16.977 14.5989 16.5544 15.6109 15.7918M12 17C10.7695 17 9.56783 16.6216 8.55852 15.9149C7.52059 15.1881 6.73938 14.1515 6.32686 12.9534M12 21H8.99998M12 21H15M9.99998 10.5V11C9.99998 12.1046 10.8954 13 12 13H13M9.99998 5.5V5C9.99998 3.89543 10.8954 3 12 3C13.1045 3 14 3.89543 14 5V9.5M17.7378 12.7542C17.6255 13.1214 17.4789 13.475 17.3009 13.8107M5 5L19 19" stroke="#141C24" stroke-width="1.5" stroke-linecap="round" stroke-linejoin="round"/>
</svg>
