<svg width="24" height="24" viewBox="0 0 24 24" fill="none" xmlns="http://www.w3.org/2000/svg">
<path d="M12 17V21M12 21H9.00002M12 21H15M17.7378 12.7542C17.3674 13.9659 16.6228 15.0293 15.6109 15.7918C14.599 16.5544 13.3716 16.977 12.1047 16.9991C10.8378 17.0212 9.59648 16.6417 8.55856 15.9149C7.52063 15.1881 6.73942 14.1515 6.3269 12.9534M12 13C10.8954 13 10 12.1046 10 11V5C10 3.89543 10.8954 3 12 3C13.1046 3 14 3.89543 14 5V11C14 12.1046 13.1046 13 12 13Z" stroke="#141C24" stroke-width="1.5" stroke-linecap="round" stroke-linejoin="round"/>
</svg>
