<svg width="24" height="24" viewBox="0 0 24 24" fill="none" xmlns="http://www.w3.org/2000/svg">
<path d="M2 6H22M2 6V18M2 6L2 10C3.06087 10 4.07828 9.57857 4.82843 8.82843C5.57857 8.07828 6 7.06087 6 6L2 6ZM22 6V18M22 6H18C18 6.52529 18.1035 7.04543 18.3045 7.53073C18.5055 8.01604 18.8001 8.45699 19.1716 8.82843C19.543 9.19986 19.984 9.4945 20.4693 9.69552C20.9546 9.89654 21.4747 10 22 10V6ZM22 18H2M22 18V14C20.9391 14 19.9217 14.4214 19.1716 15.1716C18.4214 15.9217 18 16.9391 18 18H22ZM2 18L6 18C6 16.9391 5.57857 15.9217 4.82843 15.1716C4.07828 14.4214 3.06087 14 2 14L2 18ZM14.0741 9.5H11.3333C10.597 9.5 10 10.0596 10 10.75C10 11.4404 10.597 12 11.3333 12H13.1111C13.8475 12 14.4444 12.5596 14.4444 13.25C14.4444 13.9404 13.8475 14.5 13.1111 14.5H10M12 9.51733V8.5M12 15.5173V14.5" stroke="#141C24" stroke-width="1.5" stroke-linecap="round" stroke-linejoin="round"/>
</svg>
