<svg width="24" height="24" viewBox="0 0 24 24" fill="none" xmlns="http://www.w3.org/2000/svg">
<path d="M12 4H7C5.34315 4 4 5.34315 4 7V17C4 18.6569 5.34315 20 7 20H17C18.6569 20 20 18.6569 20 17V12M17.5 3V9M17.5 9L15 6.5M17.5 9L20 6.5M4 14H9M15 14H20M14.8191 14.0261C14.6079 14.6063 14.2228 15.1072 13.7164 15.4605C13.21 15.8137 12.607 16.0021 11.9895 16C11.3721 15.9978 10.7703 15.8052 10.2664 15.4484C9.76251 15.0916 9.38095 14.588 9.17383 14.0064" stroke="#141C24" stroke-width="1.5" stroke-linecap="round" stroke-linejoin="round"/>
</svg>
