<svg width="24" height="24" viewBox="0 0 24 24" fill="none" xmlns="http://www.w3.org/2000/svg">
<path d="M14 6V5C14 3.89543 13.1046 3 12 3C10.8954 3 10 3.89543 10 5V6M12 17.5H12.01M7.5 17.5H7.51M16.5 17.5H16.51M9 11H15C15.5523 11 16 10.5523 16 10V7C16 6.44772 15.5523 6 15 6H9C8.44772 6 8 6.44772 8 7V10C8 10.5523 8.44772 11 9 11ZM5 21H19C20.1046 21 21 20.1046 21 19V16C21 14.8954 20.1046 14 19 14H5C3.89543 14 3 14.8954 3 16V19C3 20.1046 3.89543 21 5 21Z" stroke="#141C24" stroke-width="1.5" stroke-linecap="round"/>
</svg>
