<svg width="24" height="24" viewBox="0 0 24 24" fill="none" xmlns="http://www.w3.org/2000/svg">
<path d="M12.8431 18.1569C14.5559 19.0189 16.5723 19.6405 18.9375 19.9064C19.5115 19.9709 20 19.5111 20 18.9335V16.7808C20 16.322 19.6877 15.922 19.2425 15.8107L16.5493 15.1374C16.2085 15.0522 15.848 15.152 15.5996 15.4004L12.8431 18.1569ZM12.8431 18.1569C9.72749 16.5888 7.61705 14.225 6.24116 11.7589M6.24116 11.7589C4.93032 9.40931 4.28622 6.96679 4.0748 5.03089C4.01343 4.46889 4.46854 4.00005 5.03388 4.00005H7.18019C7.65687 4.00005 8.06729 4.33651 8.16077 4.80394L8.89504 8.47526C8.96061 8.80312 8.85799 9.14206 8.62156 9.37849L6.24116 11.7589ZM12.954 7.09196C13.9379 7.28321 14.8416 7.76573 15.5478 8.47693C16.2541 9.18812 16.7303 10.0952 16.9147 11.0803M13.0968 3.06714C15.0793 3.31055 16.9244 4.20652 18.3417 5.61392C19.759 7.02132 20.6678 8.86018 20.925 10.8409" stroke="#141C24" stroke-width="1.5" stroke-linecap="round" stroke-linejoin="round"/>
</svg>
