<svg width="24" height="24" viewBox="0 0 24 24" fill="none" xmlns="http://www.w3.org/2000/svg">
<path d="M19 5L5 19M12.8431 18.1568C14.5559 19.0188 16.5723 19.6404 18.9375 19.9063C19.5115 19.9709 20 19.511 20 18.9334V16.7808C20 16.3219 19.6877 15.9219 19.2425 15.8106L16.5493 15.1373C16.2085 15.0521 15.848 15.152 15.5996 15.4004L12.8431 18.1568ZM12.8431 18.1568C11.2252 17.3425 10.1137 16.6464 9 15.5M6.24116 11.7588C4.93032 9.40926 4.28622 6.96674 4.0748 5.03084C4.01343 4.46884 4.46854 4 5.03388 4H7.18019C7.65687 4 8.06729 4.33646 8.16077 4.80388L8.89504 8.47521C8.96061 8.80307 8.85799 9.14201 8.62156 9.37843L6.24116 11.7588ZM6.24116 11.7588C6.46151 12.1538 6.74086 12.6132 7 13" stroke="#141C24" stroke-width="1.5" stroke-linecap="round"/>
</svg>
