<svg width="24" height="24" viewBox="0 0 24 24" fill="none" xmlns="http://www.w3.org/2000/svg">
<path d="M3 3L21 21M8.8 4H15.2C16.8802 4 17.7202 4 18.362 4.32698C18.9265 4.6146 19.3854 5.07354 19.673 5.63803C20 6.27976 20 7.11984 20 8.8V15L17.2071 12.2071M4.00169 15.9982C4 15.7549 4 15.49 4 15.2V8.8C4 7.11984 4 6.27976 4.32699 5.63803C4.44521 5.406 4.59238 5.1918 4.76394 5M4.00169 15.9982C4.00975 17.1642 4.05644 17.831 4.32699 18.362C4.61461 18.9265 5.07355 19.3854 5.63803 19.673C6.27977 20 7.11985 20 8.8 20H15.2C16.8802 20 17.7202 20 18.362 19.673C18.6354 19.5337 18.8841 19.3542 19.1005 19.1419M4.00169 15.9982L4 16M4.00169 15.9982L9.08579 10.5C9.47631 10.1095 10.1095 10.1095 10.5 10.5L16.0429 16.0429" stroke="#141C24" stroke-width="1.5" stroke-linecap="round" stroke-linejoin="round"/>
</svg>
