<svg width="24" height="24" viewBox="0 0 24 24" fill="none" xmlns="http://www.w3.org/2000/svg">
<path d="M20 20H5C3.89543 20 3 19.1046 3 18V9C3 7.89543 3.89543 7 5 7H6.5M9.15 4.8C9.52771 4.29639 10.1205 4 10.75 4H13.25C13.8795 4 14.4723 4.29639 14.85 4.8L15.9 6.2C16.2777 6.70361 16.8705 7 17.5 7H19C20.1046 7 21 7.89543 21 9V16.5M12.5 9.03095C14.1763 9.23998 15.5305 10.4862 15.9 12.1072M9.74628 9.69488C8.69199 10.4152 8 11.6268 8 13C8 15.2091 9.79086 17 12 17C13.36 17 14.5614 16.3213 15.2841 15.2841M3 3L15.2841 15.2841M21 21L15.2841 15.2841" stroke="#141C24" stroke-width="1.5" stroke-linecap="round" stroke-linejoin="round"/>
</svg>
