<svg width="24" height="24" viewBox="0 0 24 24" fill="none" xmlns="http://www.w3.org/2000/svg">
<path d="M5 5L19 19M17 9.82833L19.7928 7.0355C20.1834 6.64498 20.1834 6.01182 19.7928 5.62129L18.3786 4.20708C17.9881 3.81655 17.3549 3.81655 16.9644 4.20708L14.1716 6.99991M17 9.82833L14.1716 6.99991M17 9.82833L19 11.8283M17 9.82833L15.4129 11.4154M14.1716 6.99991L12.1717 4.99997M14.1716 6.99991L12.5845 8.58702M5.53034 16.3484L5.58836 16.0583C5.6658 15.6711 5.8561 15.3155 6.1353 15.0363L9.93935 11.2322M5.53034 16.3484L7.71829 18.4564M5.53034 16.3484L5.00001 19L7.71829 18.4564M7.71829 18.4564L7.94175 18.4117C8.32893 18.3342 8.68454 18.1439 8.96374 17.8647L12.7678 14.0606" stroke="#141C24" stroke-width="1.5" stroke-linecap="round" stroke-linejoin="round"/>
</svg>
