<svg width="24" height="24" viewBox="0 0 24 24" fill="none" xmlns="http://www.w3.org/2000/svg">
<path d="M12 20C9.87827 20 7.84344 19.1571 6.34315 17.6569C4.84285 16.1566 4 14.1217 4 12C4 9.87827 4.84285 7.84344 6.34315 6.34315C7.84344 4.84285 9.87827 4 12 4M12 20L12 12M12 20C13.0506 20 14.0909 19.7931 15.0615 19.391C16.0321 18.989 16.914 18.3997 17.6569 17.6569C18.3997 16.914 18.989 16.0321 19.391 15.0615C19.7931 14.0909 20 13.0506 20 12M12 4V12M12 4C13.0506 4 14.0909 4.20693 15.0615 4.60896C16.0321 5.011 16.914 5.60028 17.6569 6.34315C18.3997 7.08602 18.989 7.96793 19.391 8.93853C19.7931 9.90914 20 10.9494 20 12M12 12L20 12" stroke="#141C24" stroke-width="1.5" stroke-linecap="round" stroke-linejoin="round"/>
</svg>
