<svg width="24" height="24" viewBox="0 0 24 24" fill="none" xmlns="http://www.w3.org/2000/svg">
<path d="M18.6567 13.0514C19.5522 13.0514 20 13.4723 20 14.3141V17.7373C20 18.5791 19.5522 19 18.6567 19H15.194C14.2985 19 13.8507 18.5791 13.8507 17.7373V14.3141C13.8507 12.3499 14.0697 10.6383 14.5075 9.17917C14.9652 7.70137 15.8507 6.41063 17.1642 5.30695C17.602 4.95153 17.9701 4.90477 18.2687 5.16666L19.6119 6.34516C19.9104 6.60705 19.8408 6.92505 19.403 7.29918C18.7264 7.86037 18.1692 8.6741 17.7313 9.74036C17.3134 10.7879 17.1045 11.8916 17.1045 13.0514H18.6567ZM8.80597 13.0514C9.70149 13.0514 10.1493 13.4723 10.1493 14.3141V17.7373C10.1493 18.5791 9.70149 19 8.80597 19H5.34328C4.44776 19 4 18.5791 4 17.7373V14.3141C4 12.3499 4.21891 10.6383 4.65672 9.17917C5.11443 7.70137 6 6.41063 7.31343 5.30695C7.75124 4.95153 8.1194 4.90477 8.41791 5.16666L9.76119 6.34516C10.0597 6.60705 9.99005 6.92505 9.55224 7.29918C8.87562 7.86037 8.31841 8.6741 7.8806 9.74036C7.46269 10.7879 7.25373 11.8916 7.25373 13.0514H8.80597Z" fill="#141C24"/>
</svg>
