<svg width="24" height="24" viewBox="0 0 24 24" fill="none" xmlns="http://www.w3.org/2000/svg">
<path d="M12 4.75C12.4142 4.75 12.75 4.41421 12.75 4C12.75 3.58579 12.4142 3.25 12 3.25V4.75ZM20.75 12C20.75 11.5858 20.4142 11.25 20 11.25C19.5858 11.25 19.25 11.5858 19.25 12H20.75ZM5.63803 19.673L5.97852 19.0048H5.97852L5.63803 19.673ZM4.32698 18.362L3.65873 18.7025H3.65873L4.32698 18.362ZM18.362 19.673L18.0215 19.0048H18.0215L18.362 19.673ZM19.673 18.362L19.0048 18.0215V18.0215L19.673 18.362ZM4.32698 5.63803L4.99524 5.97852L4.32698 5.63803ZM5.63803 4.32698L5.97852 4.99524L5.63803 4.32698ZM3.46967 15.4697C3.17678 15.7626 3.17678 16.2375 3.46967 16.5304C3.76257 16.8233 4.23744 16.8233 4.53033 16.5304L3.46967 15.4697ZM8.29289 11.7071L7.76256 11.1768L8.29289 11.7071ZM9.70711 11.7071L9.17678 12.2374L9.70711 11.7071ZM15.7929 12.2071L16.3232 12.7374L15.7929 12.2071ZM17.2071 12.2071L17.7375 11.6768L17.2071 12.2071ZM19.4697 15.5303C19.7626 15.8232 20.2374 15.8232 20.5303 15.5303C20.8232 15.2374 20.8232 14.7626 20.5303 14.4697L19.4697 15.5303ZM14.7197 17.7803C15.0126 18.0732 15.4874 18.0732 15.7803 17.7803C16.0732 17.4874 16.0732 17.0126 15.7803 16.7197L14.7197 17.7803ZM15.2 19.25H8.8V20.75H15.2V19.25ZM4.75 15.2V8.8H3.25V15.2H4.75ZM8.8 4.75H12V3.25H8.8V4.75ZM19.25 12V15.2H20.75V12H19.25ZM8.8 19.25C7.94755 19.25 7.35331 19.2494 6.89068 19.2116C6.4368 19.1745 6.17604 19.1054 5.97852 19.0048L5.29754 20.3413C5.74175 20.5676 6.22189 20.662 6.76853 20.7066C7.30641 20.7506 7.9723 20.75 8.8 20.75V19.25ZM3.25 15.2C3.25 16.0277 3.24942 16.6936 3.29336 17.2315C3.33803 17.7781 3.43238 18.2582 3.65873 18.7025L4.99524 18.0215C4.8946 17.824 4.82546 17.5632 4.78838 17.1093C4.75058 16.6467 4.75 16.0525 4.75 15.2H3.25ZM5.97852 19.0048C5.55516 18.7891 5.21095 18.4448 4.99524 18.0215L3.65873 18.7025C4.01825 19.4081 4.59193 19.9818 5.29754 20.3413L5.97852 19.0048ZM15.2 20.75C16.0277 20.75 16.6936 20.7506 17.2315 20.7066C17.7781 20.662 18.2582 20.5676 18.7025 20.3413L18.0215 19.0048C17.824 19.1054 17.5632 19.1745 17.1093 19.2116C16.6467 19.2494 16.0525 19.25 15.2 19.25V20.75ZM19.25 15.2C19.25 16.0525 19.2494 16.6467 19.2116 17.1093C19.1745 17.5632 19.1054 17.824 19.0048 18.0215L20.3413 18.7025C20.5676 18.2582 20.662 17.7781 20.7066 17.2315C20.7506 16.6936 20.75 16.0277 20.75 15.2H19.25ZM18.7025 20.3413C19.4081 19.9818 19.9817 19.4081 20.3413 18.7025L19.0048 18.0215C18.7891 18.4448 18.4448 18.7891 18.0215 19.0048L18.7025 20.3413ZM4.75 8.8C4.75 7.94755 4.75058 7.35331 4.78838 6.89068C4.82546 6.4368 4.8946 6.17604 4.99524 5.97852L3.65873 5.29754C3.43238 5.74175 3.33803 6.22189 3.29336 6.76853C3.24942 7.30641 3.25 7.9723 3.25 8.8H4.75ZM8.8 3.25C7.9723 3.25 7.30641 3.24942 6.76853 3.29336C6.22189 3.33803 5.74175 3.43238 5.29754 3.65873L5.97852 4.99524C6.17604 4.8946 6.4368 4.82546 6.89068 4.78838C7.35331 4.75058 7.94755 4.75 8.8 4.75V3.25ZM4.99524 5.97852C5.21095 5.55516 5.55516 5.21095 5.97852 4.99524L5.29754 3.65873C4.59193 4.01825 4.01825 4.59193 3.65873 5.29754L4.99524 5.97852ZM18 8.25C16.7574 8.25 15.75 7.24264 15.75 6H14.25C14.25 8.07107 15.9289 9.75 18 9.75V8.25ZM18 3.75C19.2426 3.75 20.25 4.75736 20.25 6H21.75C21.75 3.92893 20.0711 2.25 18 2.25V3.75ZM15.75 6C15.75 5.37847 16.001 4.817 16.409 4.40901L15.3483 3.34835C14.6706 4.02615 14.25 4.96467 14.25 6H15.75ZM16.409 4.40901C16.817 4.00102 17.3785 3.75 18 3.75V2.25C16.9647 2.25 16.0261 2.67055 15.3483 3.34835L16.409 4.40901ZM20.25 6C20.25 6.62153 19.999 7.183 19.591 7.59099L20.6517 8.65165C21.3294 7.97386 21.75 7.03533 21.75 6H20.25ZM19.591 7.59099C19.183 7.99898 18.6215 8.25 18 8.25V9.75C19.0353 9.75 19.9739 9.32945 20.6517 8.65165L19.591 7.59099ZM4.53033 16.5304L8.82322 12.2374L7.76256 11.1768L3.46967 15.4697L4.53033 16.5304ZM9.17678 12.2374L12.4697 15.5303L13.5303 14.4697L10.2374 11.1768L9.17678 12.2374ZM13.5303 15.5303L16.3232 12.7374L15.2626 11.6768L12.4697 14.4697L13.5303 15.5303ZM16.6768 12.7374L19.4697 15.5303L20.5303 14.4697L17.7375 11.6768L16.6768 12.7374ZM12.4697 15.5303L14.7197 17.7803L15.7803 16.7197L13.5303 14.4697L12.4697 15.5303ZM16.3232 12.7374C16.4209 12.6398 16.5792 12.6398 16.6768 12.7374L17.7375 11.6768C17.0541 10.9934 15.946 10.9934 15.2626 11.6768L16.3232 12.7374ZM8.82322 12.2374C8.92086 12.1398 9.07915 12.1398 9.17678 12.2374L10.2374 11.1768C9.55402 10.4934 8.44598 10.4934 7.76256 11.1768L8.82322 12.2374ZM20.6517 7.59099L16.409 3.34835L15.3483 4.40901L19.591 8.65165L20.6517 7.59099Z" fill="#141C24"/>
</svg>
