<svg width="24" height="24" viewBox="0 0 24 24" fill="none" xmlns="http://www.w3.org/2000/svg">
<path d="M9 4H6C4.89543 4 4 4.89543 4 6V14C4 15.1046 4.89543 16 6 16H18C19.1046 16 20 15.1046 20 14V12M14.0251 4.02513C13.3918 4.6585 13 5.5335 13 6.5C13 8.433 14.567 10 16.5 10C17.4665 10 18.3415 9.60825 18.9749 8.97487M14.0251 4.02513C14.6585 3.39175 15.5335 3 16.5 3C18.433 3 20 4.567 20 6.5C20 7.4665 19.6082 8.3415 18.9749 8.97487M14.0251 4.02513L18.9749 8.97487M12 16V20M8 20H16" stroke="#141C24" stroke-width="1.5" stroke-linecap="round" stroke-linejoin="round"/>
</svg>
