<svg width="24" height="24" viewBox="0 0 24 24" fill="none" xmlns="http://www.w3.org/2000/svg">
<path d="M20.7197 16.0828L20.9899 17.0026C21.0733 17.2864 20.6188 17.5555 20.3884 17.375C17.7221 15.287 13.0886 15.1632 10.8444 15.4107C10.8391 15.4113 10.8354 15.4158 10.8354 15.4212V17.9317C10.8354 18.8848 9.70231 19.359 9.0455 18.6807L3.30156 12.749C2.89948 12.3338 2.89948 11.6662 3.30156 11.251L9.0455 5.31926C9.70231 4.64098 10.8354 5.11515 10.8354 6.06828V8.57878C10.8354 8.58406 10.8396 8.58834 10.8448 8.58834C15.3989 8.58834 19.4133 11.635 20.7197 16.0828Z" fill="#141C24"/>
</svg>
