<svg width="24" height="24" viewBox="0 0 24 24" fill="none" xmlns="http://www.w3.org/2000/svg">
<path d="M14.4748 11.4247L13.9445 11.955L14.4748 12.4853L15.0052 11.955L14.4748 11.4247ZM14.8 10.938L14.1071 10.651L14.1071 10.651L14.8 10.938ZM14.8 9.78997L15.4929 9.50296H15.4929L14.8 9.78997ZM14.4748 9.30334L13.9445 9.83367L14.4748 9.30334ZM13.9882 8.97818L13.7012 9.67109H13.7012L13.9882 8.97818ZM12.8402 8.97818L13.1272 9.67109H13.1272L12.8402 8.97818ZM12.3535 9.30334L11.8232 8.77301L11.2929 9.30334L11.8232 9.83367L12.3535 9.30334ZM8.05888 5.99995L8.58921 5.46962C8.29631 5.17673 7.82144 5.17673 7.52855 5.46962L8.05888 5.99995ZM18 15.9411L18.5303 16.4714C18.8232 16.1785 18.8232 15.7036 18.5303 15.4107L18 15.9411ZM5 21L4.3582 20.6119C4.21816 20.8435 4.21377 21.1326 4.34672 21.3684C4.47967 21.6041 4.72934 21.75 5 21.75V21ZM10 21.75C10.4142 21.75 10.75 21.4142 10.75 21C10.75 20.5857 10.4142 20.25 10 20.25V21.75ZM16.9121 9.33934C17.074 9.72063 17.5143 9.89852 17.8956 9.73667C18.2769 9.57483 18.4547 9.13453 18.2929 8.75325L16.9121 9.33934ZM15.3204 5.73893C14.9414 5.57178 14.4987 5.7435 14.3315 6.12249C14.1644 6.50148 14.3361 6.94422 14.7151 7.11137L15.3204 5.73893ZM19.9691 9.00158C20.0833 9.39975 20.4987 9.62997 20.8968 9.5158C21.295 9.40163 21.5252 8.98629 21.411 8.58813L19.9691 9.00158ZM15.4705 2.60595C15.0731 2.489 14.6562 2.71632 14.5392 3.11368C14.4223 3.51104 14.6496 3.92798 15.047 4.04492L15.4705 2.60595ZM15.0052 11.955C15.2141 11.7461 15.3798 11.498 15.4929 11.225L14.1071 10.651C14.0694 10.742 14.0142 10.8247 13.9445 10.8943L15.0052 11.955ZM15.4929 11.225C15.606 10.9521 15.6642 10.6595 15.6642 10.364H14.1642C14.1642 10.4625 14.1448 10.56 14.1071 10.651L15.4929 11.225ZM15.6642 10.364C15.6642 10.0685 15.606 9.77594 15.4929 9.50296L14.1071 10.077C14.1448 10.168 14.1642 10.2655 14.1642 10.364H15.6642ZM15.4929 9.50296C15.3798 9.22998 15.2141 8.98194 15.0052 8.77301L13.9445 9.83367C14.0142 9.90331 14.0694 9.98599 14.1071 10.077L15.4929 9.50296ZM15.0052 8.77301C14.7962 8.56407 14.5482 8.39834 14.2752 8.28527L13.7012 9.67109C13.7922 9.70878 13.8749 9.76402 13.9445 9.83367L15.0052 8.77301ZM14.2752 8.28527C14.0022 8.17219 13.7097 8.114 13.4142 8.114V9.614C13.5127 9.614 13.6102 9.6334 13.7012 9.67109L14.2752 8.28527ZM13.4142 8.114C13.1187 8.114 12.8261 8.17219 12.5531 8.28527L13.1272 9.67109C13.2182 9.6334 13.3157 9.614 13.4142 9.614V8.114ZM12.5531 8.28527C12.2802 8.39834 12.0321 8.56407 11.8232 8.77301L12.8839 9.83367C12.9535 9.76402 13.0362 9.70878 13.1272 9.67109L12.5531 8.28527ZM7.52855 5.46962C6.80616 6.19201 6.23313 7.04961 5.84217 7.99345L7.22799 8.56748C7.54357 7.80562 8.00611 7.11338 8.58921 6.53028L7.52855 5.46962ZM5.84217 7.99345C5.45122 8.9373 5.25 9.9489 5.25 10.9705H6.75C6.75 10.1459 6.91242 9.32933 7.22799 8.56748L5.84217 7.99345ZM5.25 10.9705C5.25 11.9921 5.45122 13.0037 5.84217 13.9476L7.22799 13.3735C6.91242 12.6117 6.75 11.7951 6.75 10.9705H5.25ZM5.84217 13.9476C6.23313 14.8914 6.80616 15.749 7.52854 16.4714L8.5892 15.4107C8.0061 14.8276 7.54356 14.1354 7.22799 13.3735L5.84217 13.9476ZM7.52854 16.4714C8.25093 17.1938 9.10853 17.7668 10.0524 18.1578L10.6264 16.772C9.86454 16.4564 9.1723 15.9938 8.5892 15.4107L7.52854 16.4714ZM10.0524 18.1578C10.9962 18.5487 12.0078 18.7499 13.0294 18.7499V17.2499C12.2048 17.2499 11.3883 17.0875 10.6264 16.772L10.0524 18.1578ZM13.0294 18.7499C14.051 18.7499 15.0627 18.5487 16.0065 18.1578L15.4325 16.772C14.6706 17.0875 13.8541 17.2499 13.0294 17.2499V18.7499ZM16.0065 18.1578C16.9503 17.7668 17.8079 17.1938 18.5303 16.4714L17.4697 15.4107C16.8866 15.9938 16.1943 16.4564 15.4325 16.772L16.0065 18.1578ZM7.41708 15.553L4.3582 20.6119L5.6418 21.388L8.70067 16.3291L7.41708 15.553ZM5 21.75H10V20.25H5V21.75ZM18.2929 8.75325C17.7215 7.40701 16.6585 6.32911 15.3204 5.73893L14.7151 7.11137C15.7041 7.54759 16.4898 8.3443 16.9121 9.33934L18.2929 8.75325ZM21.411 8.58813C21.0048 7.17138 20.2473 5.8802 19.2087 4.8344L18.1444 5.89135C19.0049 6.75787 19.6325 7.8277 19.9691 9.00158L21.411 8.58813ZM19.2087 4.8344C18.1702 3.78861 16.8844 3.02208 15.4705 2.60595L15.047 4.04492C16.2185 4.38972 17.2839 5.02484 18.1444 5.89135L19.2087 4.8344ZM18.5303 15.4107L8.58921 5.46962L7.52854 6.53028L17.4697 16.4714L18.5303 15.4107ZM11.8232 9.83367L13.9445 11.955L15.0052 10.8943L12.8839 8.77301L11.8232 9.83367Z" fill="#141C24"/>
</svg>
