<svg width="24" height="24" viewBox="0 0 24 24" fill="none" xmlns="http://www.w3.org/2000/svg">
<path d="M11 3C10.4477 3 10 3.44772 10 4V5.63424C10 6.05805 9.72887 6.42852 9.34879 6.61604C9.11129 6.73321 8.88267 6.86564 8.66419 7.01204C8.312 7.24805 7.85543 7.29771 7.48827 7.08573L6.07182 6.26794C5.59353 5.9918 4.98194 6.15568 4.7058 6.63397L3.7058 8.36602C3.42965 8.84431 3.59353 9.4559 4.07182 9.73204L5.4884 10.5499C5.85506 10.7616 6.04048 11.1811 6.01292 11.6035C6.00437 11.7346 6.00003 11.8668 6.00003 12C6.00003 12.1332 6.00437 12.2654 6.01292 12.3964C6.04047 12.8189 5.85506 13.2384 5.4884 13.4501L4.07182 14.2679C3.59353 14.5441 3.42965 15.1557 3.7058 15.634L4.7058 17.366C4.98194 17.8443 5.59353 18.0082 6.07182 17.732L7.48826 16.9143C7.85542 16.7023 8.31199 16.7519 8.66418 16.988C8.88266 17.1344 9.11129 17.2668 9.34879 17.384C9.72887 17.5715 10 17.9419 10 18.3658V20C10 20.5523 10.4477 21 11 21H13C13.5523 21 14 20.5523 14 20V18.3658C14 17.9419 14.2712 17.5715 14.6513 17.384C14.8888 17.2668 15.1174 17.1344 15.3359 16.988C15.6881 16.7519 16.1446 16.7023 16.5118 16.9143L17.9282 17.732C18.4065 18.0082 19.0181 17.8443 19.2943 17.366L20.2943 15.634C20.5704 15.1557 20.4065 14.5441 19.9282 14.2679L18.5117 13.4501C18.145 13.2384 17.9596 12.8189 17.9871 12.3964C17.9957 12.2654 18 12.1332 18 12C18 11.8668 17.9957 11.7346 17.9871 11.6035C17.9596 11.1811 18.145 10.7616 18.5117 10.5499L19.9282 9.73205C20.4065 9.4559 20.5704 8.84431 20.2943 8.36602L19.2943 6.63397C19.0181 6.15568 18.4065 5.9918 17.9282 6.26794L16.5118 7.08573C16.1446 7.29771 15.6881 7.24805 15.3359 7.01204C15.1174 6.86564 14.8888 6.73321 14.6513 6.61604C14.2712 6.42852 14 6.05805 14 5.63423V4C14 3.44772 13.5523 3 13 3H11Z" stroke="#141C24" stroke-width="1.5" stroke-linecap="round" stroke-linejoin="round"/>
<path d="M15 12C15 13.6569 13.6569 15 12 15C10.3432 15 9.00003 13.6569 9.00003 12C9.00003 10.3431 10.3432 9 12 9C13.6569 9 15 10.3431 15 12Z" stroke="#141C24" stroke-width="1.5" stroke-linecap="round" stroke-linejoin="round"/>
</svg>
