<svg width="24" height="24" viewBox="0 0 24 24" fill="none" xmlns="http://www.w3.org/2000/svg">
<path d="M15 21H5C3.89543 21 3 20.1046 3 19V8C3 7.44772 3.44772 7 4 7H14C14.5523 7 15 7.44772 15 8V10.5M12 7V6C12 4.34315 10.6569 3 9 3C7.34315 3 6 4.34315 6 6V7M13 14V15C13 16.1046 13.8954 17 15 17C16.1046 17 17 16.1046 17 15V14M11 21H19C20.1046 21 21 20.1046 21 19V12C21 11.4477 20.5523 11 20 11H10C9.44772 11 9 11.4477 9 12V19C9 20.1046 9.89543 21 11 21Z" stroke="#141C24" stroke-width="1.5" stroke-linecap="round" stroke-linejoin="round"/>
</svg>
