<svg width="24" height="24" viewBox="0 0 24 24" fill="none" xmlns="http://www.w3.org/2000/svg">
<path d="M16 12L8 12M8 12L11 15M8 12L11 9M7.22 20H16.78C17.919 20 18.4885 20 18.9219 19.7748C19.2872 19.5851 19.5851 19.2872 19.7748 18.9219C20 18.4885 20 17.919 20 16.78V7.22C20 6.08102 20 5.51153 19.7748 5.07805C19.5851 4.71276 19.2872 4.41492 18.9219 4.22517C18.4885 4 17.919 4 16.78 4H7.22C6.08102 4 5.51153 4 5.07805 4.22517C4.71276 4.41492 4.41492 4.71276 4.22517 5.07805C4 5.51153 4 6.08102 4 7.22V16.78C4 17.919 4 18.4885 4.22517 18.9219C4.41492 19.2872 4.71276 19.5851 5.07805 19.7748C5.51153 20 6.08102 20 7.22 20Z" stroke="#141C24" stroke-width="1.5" stroke-linecap="round" stroke-linejoin="round"/>
</svg>
