<svg width="24" height="24" viewBox="0 0 24 24" fill="none" xmlns="http://www.w3.org/2000/svg">
<path d="M3.00002 10C3.00002 9.44771 3.44773 9 4.00002 9L7.00002 9L7.00002 21L4.00002 21C3.44773 21 3.00002 20.5523 3.00002 20L3.00002 10Z" stroke="#141C24" stroke-width="1.5"/>
<path d="M9.24424 20.4961L7.00002 19L7.00002 11L7.89141 11C8.26525 11 8.60788 10.7915 8.77963 10.4594L11.7119 4.79038C12.4949 3.27664 14.7946 4.03366 14.5254 5.7165L14.1853 7.84201C14.0881 8.44959 14.5574 9 15.1727 9L18.5404 9C19.809 9 20.7571 10.1659 20.4984 11.4079L18.9975 18.6119C18.7077 20.003 17.4816 21 16.0606 21L10.9083 21C10.3161 21 9.73705 20.8247 9.24424 20.4961Z" stroke="#141C24" stroke-width="1.5"/>
</svg>
