<svg width="24" height="24" viewBox="0 0 24 24" fill="none" xmlns="http://www.w3.org/2000/svg">
<path d="M21 14C21 14.5523 20.5523 15 20 15H17V3H20C20.5523 3 21 3.44772 21 4V14Z" stroke="#141C24" stroke-width="1.5"/>
<path d="M14.7558 3.50385L17 5V13H16.1086C15.7347 13 15.3921 13.2085 15.2204 13.5406L12.2881 19.2096C11.5051 20.7234 9.20537 19.9663 9.47462 18.2835L9.8147 16.158C9.91192 15.5504 9.44258 15 8.82726 15H5.45959C4.19096 15 3.24289 13.8341 3.50163 12.5921L5.00245 5.38814C5.29228 3.99698 6.51837 3 7.93939 3H13.0917C13.6839 3 14.263 3.17531 14.7558 3.50385Z" stroke="#141C24" stroke-width="1.5"/>
</svg>
