<svg width="24" height="24" viewBox="0 0 24 24" fill="none" xmlns="http://www.w3.org/2000/svg">
<path d="M12 19L12 9M12 9L14.5 11.5M12 9L9.5 11.5M16 14H17C18.6569 14 20 12.6569 20 11C20 9.34315 18.6569 8 17 8C16.9666 8 16.9334 8.00055 16.9003 8.00163C16.4377 5.71858 14.4195 4 12 4C9.58047 4 7.56233 5.71858 7.09969 8.00163C7.06659 8.00055 7.03336 8 7 8C5.34315 8 4 9.34315 4 11C4 12.6569 5.34315 14 7 14H8" stroke="#141C24" stroke-width="1.5" stroke-linecap="round" stroke-linejoin="round"/>
</svg>
