<svg width="24" height="24" viewBox="0 0 24 24" fill="none" xmlns="http://www.w3.org/2000/svg">
<path d="M3 4L19 20M10 7H13C14.1046 7 15 7.89543 15 9V11.5M5.75 7C4.7835 7 4 7.7835 4 8.75V15C4 16.1046 4.89543 17 6 17H14.2929C14.7456 17 15.1799 16.8201 15.5 16.5M15.3753 10.6998L18.3753 8.29976C19.0301 7.77595 20 8.24212 20 9.08062V14.9194C20 15.7579 19.0301 16.2241 18.3753 15.7002L15.3753 13.3002C15.1381 13.1105 15 12.8232 15 12.5194V11.4806C15 11.1768 15.1381 10.8895 15.3753 10.6998Z" stroke="#141C24" stroke-width="1.5" stroke-linecap="round" stroke-linejoin="round"/>
</svg>
