<svg width="24" height="24" viewBox="0 0 24 24" fill="none" xmlns="http://www.w3.org/2000/svg">
<path d="M5 5L19 19M16.0655 9.08944C16.7115 9.99169 17.0389 11.0832 16.9963 12.192C16.9811 12.5883 16.9189 12.9787 16.8127 13.3557M18.9745 6.31179C20.2982 7.93479 21.0144 9.9686 20.9998 12.0629C20.9895 13.5354 20.6184 14.9729 19.931 16.2544M10.125 6.50005L10.75 6.00005C11.2538 5.59705 12 5.95571 12 6.60083V8.50005M12 12.0001V16.9194C12 17.7579 11.0301 18.2241 10.3753 17.7003L7.27391 15.2192C7.0966 15.0773 6.87629 15.0001 6.64922 15.0001H4C3.44772 15.0001 3 14.5523 3 14.0001V10.0001C3 9.44777 3.44772 9.00005 4 9.00005H6.64922C6.87629 9.00005 7.0966 8.92277 7.27391 8.78092L8.09375 8.12505" stroke="#141C24" stroke-width="1.5" stroke-linecap="round" stroke-linejoin="round"/>
</svg>
