<svg width="24" height="24" viewBox="0 0 24 24" fill="none" xmlns="http://www.w3.org/2000/svg">
<path d="M16 9.49999L18.5 12M18.5 12L21 14.5M18.5 12L21 9.49999M18.5 12L16 14.5M3 9.99999V14C3 14.5523 3.44772 15 4 15H6.64922C6.87629 15 7.0966 15.0773 7.27391 15.2191L10.3753 17.7002C11.0301 18.224 12 17.7579 12 16.9194V7.08061C12 6.24211 11.0301 5.77593 10.3753 6.29974L7.27391 8.78086C7.0966 8.92271 6.87629 8.99999 6.64922 8.99999H4C3.44772 8.99999 3 9.4477 3 9.99999Z" stroke="#141C24" stroke-width="1.5" stroke-linecap="round" stroke-linejoin="round"/>
</svg>
