<svg width="24" height="24" viewBox="0 0 24 24" fill="none" xmlns="http://www.w3.org/2000/svg">
<path d="M17.8302 15.2139C18.5435 14.3639 18.9537 13.3007 18.9963 12.1919C19.0389 11.0831 18.7115 9.99162 18.0655 9.08937M5 9.99999V14C5 14.5523 5.44772 15 6 15H8.64922C8.87629 15 9.0966 15.0773 9.27391 15.2191L12.3753 17.7002C13.0301 18.224 14 17.7579 14 16.9194V7.08061C14 6.24211 13.0301 5.77593 12.3753 6.29974L9.27391 8.78086C9.0966 8.92271 8.87629 8.99999 8.64922 8.99999H6C5.44772 8.99999 5 9.4477 5 9.99999Z" stroke="#141C24" stroke-width="1.5" stroke-linecap="round" stroke-linejoin="round"/>
</svg>
