<svg width="24" height="24" viewBox="0 0 24 24" fill="none" xmlns="http://www.w3.org/2000/svg">
<path d="M12 9.5V12L13.5 13.5M15.5 17L15.219 19.2481C15.0939 20.2489 14.2431 21 13.2344 21H10.7656C9.75692 21 8.90612 20.2489 8.78101 19.2481L8.50001 17M8.5 7L8.78101 4.75193C8.90611 3.75107 9.75692 3 10.7656 3L13.2344 3C14.2431 3 15.0939 3.75107 15.219 4.75193L15.5 7M18 12C18 15.3137 15.3137 18 12 18C8.68629 18 6 15.3137 6 12C6 8.68629 8.68629 6 12 6C15.3137 6 18 8.68629 18 12Z" stroke="#141C24" stroke-width="1.5" stroke-linecap="round" stroke-linejoin="round"/>
</svg>
