<svg width="24" height="24" viewBox="0 0 24 24" fill="none" xmlns="http://www.w3.org/2000/svg">
<path d="M19.5772 10.6944C19.8148 11.0337 20.2824 11.1162 20.6217 10.8786C20.961 10.641 21.0435 10.1734 20.8059 9.83406L19.5772 10.6944ZM7.61632 7.01206L7.28754 6.33796V6.33796L7.61632 7.01206ZM3.4147 9.53049C3.16542 9.86129 3.2315 10.3315 3.56231 10.5808C3.89312 10.8301 4.36337 10.764 4.61265 10.4332L3.4147 9.53049ZM17.1197 13.4151C17.3573 13.7545 17.825 13.8369 18.1643 13.5993C18.5036 13.3617 18.586 12.8941 18.3485 12.5548L17.1197 13.4151ZM5.8106 12.3359C5.56132 12.6667 5.62741 13.137 5.95822 13.3863C6.28902 13.6356 6.75928 13.5695 7.00855 13.2387L5.8106 12.3359ZM13.8431 15.7095C14.0807 16.0488 14.5484 16.1312 14.8877 15.8936C15.227 15.6561 15.3094 15.1884 15.0718 14.8491L13.8431 15.7095ZM9.00515 14.7432C8.75586 15.074 8.82195 15.5443 9.15276 15.7935C9.48356 16.0428 9.95382 15.9767 10.2031 15.6459L9.00515 14.7432ZM12 17.25C11.5858 17.25 11.25 17.5858 11.25 18C11.25 18.4142 11.5858 18.75 12 18.75V17.25ZM12.01 18.75C12.4242 18.75 12.76 18.4142 12.76 18C12.76 17.5858 12.4242 17.25 12.01 17.25V18.75ZM20.8059 9.83406C19.8329 8.4444 18.5447 7.30476 17.0468 6.50831L16.3426 7.83274C17.6315 8.51805 18.7399 9.49867 19.5772 10.6944L20.8059 9.83406ZM17.0468 6.50831C15.549 5.71187 13.8838 5.28125 12.1876 5.25164L12.1615 6.75141C13.621 6.77689 15.0538 7.14743 16.3426 7.83274L17.0468 6.50831ZM12.1876 5.25164C10.4914 5.22203 8.81231 5.59428 7.28754 6.33796L7.94509 7.68616C9.25711 7.04624 10.7019 6.72593 12.1615 6.75141L12.1876 5.25164ZM7.28754 6.33796C5.76277 7.08164 4.43565 8.17563 3.4147 9.53049L4.61265 10.4332C5.49115 9.26741 6.63308 8.32607 7.94509 7.68615L7.28754 6.33796ZM18.3485 12.5548C17.647 11.5529 16.7183 10.7313 15.6384 10.1572L14.9342 11.4816C15.8051 11.9446 16.554 12.6072 17.1197 13.4151L18.3485 12.5548ZM15.6384 10.1572C14.5586 9.58298 13.3581 9.27253 12.1353 9.25118L12.1091 10.751C13.0953 10.7682 14.0634 11.0185 14.9342 11.4816L15.6384 10.1572ZM12.1353 9.25118C10.9124 9.22984 9.7019 9.4982 8.60265 10.0343L9.26021 11.3825C10.1467 10.9502 11.1229 10.7337 12.1091 10.751L12.1353 9.25118ZM8.60265 10.0343C7.5034 10.5705 6.54664 11.3592 5.8106 12.3359L7.00855 13.2387C7.60213 12.4509 8.37371 11.8149 9.26021 11.3825L8.60265 10.0343ZM15.0718 14.8491C14.7324 14.3643 14.2831 13.9668 13.7605 13.6889L13.0563 15.0134C13.3698 15.1801 13.6395 15.4186 13.8431 15.7095L15.0718 14.8491ZM13.7605 13.6889C13.238 13.4111 12.6572 13.2609 12.0655 13.2506L12.0393 14.7503C12.3943 14.7565 12.7428 14.8467 13.0563 15.0134L13.7605 13.6889ZM12.0655 13.2506C11.4738 13.2402 10.888 13.3701 10.3561 13.6295L11.0137 14.9777C11.3328 14.8221 11.6843 14.7441 12.0393 14.7503L12.0655 13.2506ZM10.3561 13.6295C9.82424 13.8889 9.36129 14.2706 9.00515 14.7432L10.2031 15.6459C10.4168 15.3623 10.6946 15.1334 11.0137 14.9777L10.3561 13.6295ZM12 18.75H12.01V17.25H12V18.75Z" fill="#141C24"/>
</svg>
