<svg width="24" height="24" viewBox="0 0 24 24" fill="none" xmlns="http://www.w3.org/2000/svg">
<path d="M5.53033 4.46967C5.23744 4.17678 4.76257 4.17678 4.46967 4.46967C4.17678 4.76256 4.17678 5.23744 4.46967 5.53033L5.53033 4.46967ZM18.4697 19.5303C18.7626 19.8232 19.2374 19.8232 19.5303 19.5303C19.8232 19.2374 19.8232 18.7626 19.5303 18.4697L18.4697 19.5303ZM19.5771 10.6944C19.8147 11.0337 20.2824 11.1162 20.6217 10.8786C20.961 10.641 21.0434 10.1734 20.8059 9.83406L19.5771 10.6944ZM12.1876 5.25164C11.7734 5.24441 11.4318 5.57428 11.4246 5.98843C11.4174 6.40258 11.7473 6.74418 12.1614 6.75141L12.1876 5.25164ZM7.43448 7.9552C7.79473 7.75075 7.92103 7.29299 7.71659 6.93274C7.51215 6.5725 7.05438 6.44619 6.69414 6.65063L7.43448 7.9552ZM3.41463 9.53049C3.16535 9.86129 3.23144 10.3315 3.56225 10.5808C3.89306 10.8301 4.36331 10.764 4.61259 10.4332L3.41463 9.53049ZM17.1197 13.4151C17.3573 13.7545 17.8249 13.8369 18.1642 13.5993C18.5035 13.3617 18.586 12.8941 18.3484 12.5548L17.1197 13.4151ZM15.2863 10.8194L14.9342 11.4816L15.2863 10.8194ZM8.93137 10.7084L9.26015 11.3825L8.93137 10.7084ZM5.81054 12.3359C5.56126 12.6667 5.62735 13.137 5.95816 13.3863C6.28896 13.6356 6.75921 13.5695 7.00849 13.2387L5.81054 12.3359ZM14.7679 9.76113C14.381 9.61319 13.9474 9.80691 13.7995 10.1938C13.6515 10.5807 13.8452 11.0143 14.2321 11.1622L14.7679 9.76113ZM10.3913 10.9606C10.7916 10.854 11.0297 10.4431 10.923 10.0428C10.8164 9.64254 10.4055 9.40448 10.0053 9.51109L10.3913 10.9606ZM13.8431 15.7095C14.0806 16.0488 14.5483 16.1312 14.8876 15.8936C15.2269 15.6561 15.3094 15.1884 15.0718 14.8491L13.8431 15.7095ZM9.00508 14.7432C8.7558 15.074 8.82189 15.5442 9.1527 15.7935C9.4835 16.0428 9.95376 15.9767 10.203 15.6459L9.00508 14.7432ZM12 17.25C11.5858 17.25 11.25 17.5858 11.25 18C11.25 18.4142 11.5858 18.75 12 18.75V17.25ZM12.01 18.75C12.4242 18.75 12.76 18.4142 12.76 18C12.76 17.5858 12.4242 17.25 12.01 17.25V18.75ZM4.46967 5.53033L18.4697 19.5303L19.5303 18.4697L5.53033 4.46967L4.46967 5.53033ZM20.8059 9.83406C19.8328 8.4444 18.5447 7.30476 17.0468 6.50831L16.3426 7.83274C17.6315 8.51805 18.7398 9.49867 19.5771 10.6944L20.8059 9.83406ZM17.0468 6.50831C15.5489 5.71187 13.8838 5.28125 12.1876 5.25164L12.1614 6.75141C13.6209 6.77689 15.0537 7.14743 16.3426 7.83274L17.0468 6.50831ZM6.69414 6.65063C5.41762 7.37506 4.3008 8.35451 3.41463 9.53049L4.61259 10.4332C5.3751 9.42132 6.33608 8.57854 7.43448 7.9552L6.69414 6.65063ZM18.3484 12.5548C17.6469 11.5529 16.7182 10.7313 15.6384 10.1572L14.9342 11.4816C15.805 11.9446 16.5539 12.6072 17.1197 13.4151L18.3484 12.5548ZM8.60259 10.0343C7.50334 10.5705 6.54658 11.3592 5.81054 12.3359L7.00849 13.2387C7.60207 12.451 8.37365 11.8149 9.26015 11.3825L8.60259 10.0343ZM15.6384 10.1572C15.3559 10.0069 15.0651 9.87479 14.7679 9.76113L14.2321 11.1622C14.4719 11.2539 14.7063 11.3604 14.9342 11.4816L15.6384 10.1572ZM10.0053 9.51109C9.52353 9.63941 9.05369 9.81433 8.60259 10.0343L9.26015 11.3825C9.62394 11.2051 10.0028 11.064 10.3913 10.9606L10.0053 9.51109ZM15.0718 14.8491C14.7324 14.3643 14.283 13.9668 13.7605 13.6889L13.0563 15.0134C13.3698 15.1801 13.6394 15.4186 13.8431 15.7095L15.0718 14.8491ZM13.7605 13.6889C13.238 13.4111 12.6571 13.2609 12.0654 13.2506L12.0392 14.7503C12.3943 14.7565 12.7428 14.8467 13.0563 15.0134L13.7605 13.6889ZM12.0654 13.2506C11.4737 13.2402 10.888 13.3701 10.3561 13.6295L11.0136 14.9777C11.3328 14.8221 11.6842 14.7441 12.0392 14.7503L12.0654 13.2506ZM10.3561 13.6295C9.82418 13.8889 9.36123 14.2706 9.00508 14.7432L10.203 15.6459C10.4167 15.3623 10.6945 15.1334 11.0136 14.9777L10.3561 13.6295ZM12 18.75H12.01V17.25H12V18.75Z" fill="#141C24"/>
</svg>
